<svg id="svg" version="1.1" xmlns="http://www.w3.org/2000/svg" xmlns:xlink="http://www.w3.org/1999/xlink" width="400" height="360.83916083916085" viewBox="0, 0, 400,360.83916083916085"><g id="svgg"><path id="path0" d="M162.816 53.758 L 162.816 84.773 165.794 85.009 C 167.432 85.140,181.824 85.195,197.776 85.132 L 226.779 85.018 227.469 84.166 C 228.447 82.958,228.563 23.337,227.588 22.963 C 227.274 22.842,212.572 22.744,194.916 22.744 L 162.816 22.744 162.816 53.758 M200.181 37.152 C 205.426 38.548,208.589 41.533,210.605 46.988 C 211.509 49.438,211.282 59.644,210.264 62.274 C 207.538 69.322,200.026 73.282,191.998 71.906 C 188.743 71.347,188.809 71.274,188.809 75.452 C 188.809 79.942,188.609 80.144,184.192 80.144 C 179.271 80.144,179.783 82.623,179.783 58.832 C 179.783 34.749,179.393 36.823,183.923 36.823 C 185.664 36.823,187.053 37.031,187.847 37.409 C 189.005 37.961,189.197 37.952,191.198 37.244 C 193.857 36.303,196.875 36.272,200.181 37.152 M190.433 44.994 C 188.904 45.403,188.809 45.962,188.809 54.513 C 188.809 64.485,188.616 64.029,192.909 64.206 C 198.244 64.425,200.667 62.560,201.731 57.414 C 202.720 52.631,201.528 47.980,198.754 45.798 C 197.813 45.058,192.216 44.517,190.433 44.994 M14.010 136.118 C 13.347 136.505,13.424 136.803,15.190 140.704 C 16.192 142.917,17.920 146.813,19.153 149.639 C 19.326 150.036,21.190 154.422,23.295 159.386 C 25.400 164.350,27.264 168.736,27.439 169.134 C 27.613 169.531,28.262 171.074,28.881 172.563 C 29.500 174.052,30.142 175.596,30.308 175.993 C 30.473 176.390,31.055 177.690,31.602 178.881 C 33.804 183.686,34.656 185.591,36.043 188.809 C 36.428 189.702,37.248 191.530,37.866 192.871 C 38.484 194.212,38.989 195.420,38.989 195.555 C 38.989 195.690,39.296 196.461,39.670 197.269 C 40.344 198.720,41.565 201.532,45.797 211.372 L 47.971 216.426 52.206 216.426 L 56.440 216.426 57.266 214.865 C 57.720 214.006,58.201 212.957,58.336 212.534 C 58.559 211.828,60.424 207.886,66.054 196.209 C 67.203 193.827,69.147 189.765,70.374 187.184 C 71.602 184.603,72.759 182.247,72.946 181.949 C 73.134 181.652,73.453 181.002,73.657 180.505 C 73.860 180.009,74.249 179.116,74.522 178.520 C 74.795 177.924,75.643 176.065,76.408 174.389 C 79.788 166.978,80.235 166.245,81.387 166.245 C 82.560 166.245,82.509 166.165,85.726 173.105 C 86.646 175.090,87.635 177.146,87.923 177.673 C 88.212 178.200,88.448 178.879,88.448 179.182 C 88.448 179.484,88.670 179.954,88.942 180.226 C 89.213 180.497,89.560 181.118,89.713 181.605 C 89.866 182.092,90.294 182.878,90.663 183.352 C 91.033 183.825,91.336 184.397,91.336 184.623 C 91.336 184.848,91.820 185.923,92.413 187.011 C 93.005 188.099,93.635 189.314,93.814 189.712 C 93.992 190.109,94.990 192.221,96.031 194.405 C 97.072 196.589,98.493 199.594,99.189 201.083 C 99.885 202.572,101.179 205.334,102.065 207.220 C 102.950 209.106,104.076 211.543,104.568 212.635 C 106.392 216.692,106.003 216.413,109.994 216.532 C 114.245 216.658,115.040 216.495,115.356 215.432 C 115.488 214.986,116.300 212.996,117.160 211.011 C 118.020 209.025,119.729 205.045,120.959 202.166 C 122.188 199.287,123.413 196.525,123.680 196.029 C 123.947 195.532,124.590 194.070,125.109 192.780 C 125.628 191.489,126.427 189.621,126.884 188.628 C 129.352 183.276,129.953 181.913,130.855 179.628 C 131.399 178.253,131.974 176.872,132.133 176.560 C 132.293 176.248,132.859 174.937,133.391 173.646 C 133.923 172.356,134.573 170.812,134.835 170.217 C 135.096 169.621,135.742 168.078,136.270 166.787 C 136.797 165.496,137.444 163.953,137.707 163.357 C 137.969 162.762,138.945 160.487,139.876 158.303 C 141.979 153.363,142.385 152.446,143.906 149.198 C 144.577 147.764,145.129 146.464,145.132 146.310 C 145.136 146.155,145.783 144.729,146.570 143.141 C 147.358 141.552,148.011 140.090,148.021 139.892 C 148.031 139.693,148.348 138.881,148.725 138.087 C 149.747 135.936,149.732 135.932,139.052 135.814 L 129.402 135.708 128.650 136.724 C 128.237 137.282,127.780 138.143,127.635 138.635 C 127.335 139.649,126.217 142.274,125.434 143.802 C 125.145 144.364,124.910 144.996,124.910 145.206 C 124.910 145.417,124.603 146.256,124.227 147.072 C 123.852 147.888,123.291 149.206,122.981 150.000 C 122.671 150.794,121.665 153.231,120.747 155.415 C 119.828 157.599,118.433 160.930,117.646 162.816 C 116.233 166.203,115.961 166.824,114.475 170.060 C 114.059 170.966,113.718 171.862,113.718 172.051 C 113.718 172.239,113.416 172.960,113.047 173.652 C 112.678 174.344,112.253 175.316,112.104 175.812 C 111.823 176.745,110.189 178.700,109.691 178.700 C 109.536 178.700,108.979 177.766,108.455 176.625 C 107.930 175.483,107.327 174.224,107.114 173.827 C 106.524 172.728,105.991 171.626,104.147 167.690 C 103.217 165.704,101.919 162.942,101.263 161.552 C 100.606 160.162,99.336 157.389,98.440 155.389 C 96.525 151.115,94.972 147.718,93.335 144.224 C 90.996 139.228,90.614 138.364,90.614 138.067 C 90.614 137.901,90.177 137.309,89.644 136.753 L 88.674 135.740 81.792 135.745 C 78.007 135.748,74.557 135.845,74.126 135.960 C 73.240 136.198,71.178 140.154,66.903 149.819 C 66.420 150.912,65.639 152.617,65.167 153.610 C 64.695 154.603,63.468 157.277,62.440 159.552 C 60.406 164.055,58.877 167.360,56.505 172.383 C 55.660 174.170,54.864 175.972,54.735 176.387 C 53.987 178.794,51.931 179.111,51.444 176.895 C 51.319 176.327,50.984 175.669,50.699 175.432 C 50.414 175.195,50.181 174.720,50.181 174.376 C 50.181 174.032,49.531 172.468,48.738 170.901 C 47.945 169.333,47.295 167.899,47.294 167.713 C 47.293 167.528,46.968 166.675,46.570 165.818 C 45.834 164.229,44.582 161.408,44.036 160.108 C 43.869 159.711,43.327 158.412,42.831 157.220 C 39.511 149.248,38.776 147.490,37.545 144.585 C 36.788 142.798,35.716 140.251,35.163 138.926 C 34.501 137.337,33.868 136.383,33.308 136.128 C 32.210 135.628,14.866 135.619,14.010 136.118 M152.680 136.314 C 151.991 137.145,151.712 178.084,152.344 185.560 C 153.594 200.331,161.493 210.189,175.451 214.398 C 177.700 215.076,180.104 215.533,185.199 216.252 C 195.682 217.730,211.951 214.704,217.900 210.168 C 218.334 209.837,219.073 209.327,219.543 209.034 C 221.469 207.834,226.206 202.593,227.241 200.517 C 227.828 199.339,228.409 198.294,228.531 198.195 C 229.211 197.644,230.442 192.851,231.406 187.004 C 232.186 182.273,231.722 136.862,230.888 136.252 C 229.906 135.535,213.648 135.497,213.056 136.210 C 212.788 136.533,212.623 144.043,212.532 160.127 C 212.386 185.727,212.411 185.396,210.162 190.396 C 209.222 192.485,204.541 197.251,203.067 197.622 C 202.523 197.758,201.843 198.105,201.555 198.393 C 201.267 198.681,200.678 198.918,200.245 198.919 C 199.812 198.920,198.971 199.196,198.375 199.531 C 196.774 200.431,187.517 200.670,185.879 199.853 C 185.245 199.537,184.562 199.278,184.362 199.278 C 182.349 199.278,176.522 195.092,174.467 192.170 C 171.947 188.587,172.060 189.893,171.850 161.853 C 171.746 147.921,171.526 136.386,171.360 136.221 C 170.694 135.554,153.239 135.641,152.680 136.314 M241.245 136.108 L 240.433 136.439 240.433 175.762 C 240.433 211.287,240.488 215.106,241.004 215.304 C 241.745 215.589,257.690 215.581,258.755 215.296 L 259.567 215.078 259.567 199.461 C 259.567 186.981,259.662 183.764,260.042 183.448 C 260.368 183.178,265.839 183.022,277.341 182.953 C 286.594 182.897,294.299 182.717,294.465 182.551 C 295.053 181.963,294.829 169.329,294.224 168.946 C 293.903 168.743,286.971 168.601,277.210 168.598 C 262.336 168.593,260.690 168.534,260.243 167.995 C 259.855 167.528,259.747 165.619,259.747 159.206 C 259.747 152.794,259.855 150.884,260.243 150.417 C 260.691 149.877,262.326 149.819,277.232 149.819 C 290.278 149.819,293.860 149.720,294.373 149.345 C 295.070 148.836,295.154 136.910,294.465 136.221 C 294.046 135.803,242.263 135.692,241.245 136.108 M301.244 136.202 C 301.146 136.458,301.110 139.586,301.165 143.153 L 301.264 149.639 315.282 149.819 C 328.630 149.991,329.325 150.034,329.813 150.701 C 330.246 151.293,330.325 156.300,330.325 183.089 C 330.325 214.048,330.341 214.785,331.023 215.150 C 331.771 215.550,347.221 215.678,348.646 215.296 L 349.458 215.078 349.458 183.508 C 349.458 153.153,349.516 151.215,350.440 150.181 C 350.528 150.081,356.883 149.919,364.560 149.819 L 378.520 149.639 378.520 142.780 L 378.520 135.921 339.971 135.829 C 308.791 135.754,301.389 135.826,301.244 136.202 M294.114 315.862 C 293.971 316.544,293.997 317.246,294.171 317.420 C 294.628 317.877,294.849 316.977,294.592 315.704 L 294.374 314.621 294.114 315.862 " stroke="none" fill="#192948" fill-rule="evenodd"></path><path id="path1" d="M0.000 180.505 L 0.000 361.011 200.000 361.011 L 400.000 361.011 400.000 180.505 L 400.000 0.000 200.000 0.000 L 0.000 0.000 0.000 180.505 M290.704 22.623 C 291.337 23.005,291.016 84.715,290.378 85.245 C 289.267 86.166,99.383 85.963,98.707 85.039 C 97.962 84.020,97.936 23.408,98.681 22.790 C 99.440 22.160,289.660 21.995,290.704 22.623 M128.700 37.916 C 127.906 38.076,126.492 38.636,125.558 39.161 C 123.731 40.188,123.186 40.114,121.871 38.662 C 120.874 37.559,117.953 37.588,117.168 38.708 C 116.238 40.036,116.330 68.952,117.267 69.800 C 118.065 70.522,122.352 70.644,123.032 69.964 C 123.350 69.647,123.466 66.711,123.466 59.009 C 123.466 46.270,123.493 46.175,127.617 44.402 C 131.182 42.870,135.255 43.884,136.873 46.707 C 137.703 48.156,137.730 48.475,137.906 58.845 C 138.118 71.356,137.787 70.397,141.899 70.397 L 145.126 70.397 145.126 59.355 C 145.126 46.226,144.814 44.422,141.983 41.186 C 141.100 40.176,140.200 39.350,139.982 39.350 C 139.765 39.350,139.331 39.125,139.018 38.849 C 137.744 37.730,132.135 37.223,128.700 37.916 M260.938 38.118 C 260.005 38.405,259.142 38.800,259.022 38.995 C 258.614 39.654,256.521 39.397,256.040 38.628 C 255.660 38.019,255.199 37.906,253.095 37.906 C 249.063 37.906,249.458 36.133,249.458 54.199 L 249.458 70.054 250.385 70.406 C 251.986 71.015,255.269 70.846,255.815 70.126 C 256.184 69.641,256.297 67.396,256.306 60.436 C 256.321 48.864,257.038 46.431,261.038 44.391 C 262.501 43.644,265.505 43.429,265.884 44.043 C 266.891 45.671,268.781 43.781,270.397 39.532 C 271.094 37.698,265.177 36.813,260.938 38.118 M192.175 38.142 C 191.544 38.234,190.834 38.543,190.596 38.830 C 190.030 39.512,187.937 39.499,187.365 38.809 C 186.630 37.924,181.730 38.049,181.240 38.965 C 180.996 39.422,180.866 46.472,180.866 59.356 L 180.866 79.048 181.690 79.254 C 182.143 79.368,183.564 79.412,184.849 79.351 L 187.184 79.242 187.286 75.035 C 187.412 69.803,187.475 69.722,191.011 70.329 C 198.739 71.654,205.676 69.010,208.358 63.718 C 210.633 59.229,210.662 49.610,208.414 44.946 C 207.413 42.870,206.357 41.160,206.073 41.158 C 205.938 41.156,205.613 40.941,205.351 40.680 C 203.465 38.803,196.649 37.489,192.175 38.142 M197.195 44.068 C 201.734 45.566,203.010 47.772,203.045 54.184 C 203.060 56.825,202.905 58.689,202.625 59.238 C 202.381 59.717,202.027 60.534,201.839 61.055 C 200.324 65.249,191.602 67.007,188.177 63.809 C 187.050 62.757,186.896 46.868,188.000 45.505 C 189.700 43.405,193.423 42.824,197.195 44.068 M299.574 76.430 C 303.267 78.550,301.429 84.963,297.313 84.316 C 293.374 83.697,292.195 78.346,295.601 76.547 C 297.261 75.670,298.201 75.642,299.574 76.430 M327.588 110.688 C 328.388 110.995,328.302 112.533,327.461 112.984 C 326.522 113.486,63.412 113.509,62.474 113.006 C 61.596 112.537,61.265 111.575,61.771 110.965 C 62.199 110.450,326.249 110.175,327.588 110.688 M33.848 134.901 C 34.848 135.475,36.823 138.998,36.823 140.210 C 36.823 140.483,37.067 140.908,37.365 141.155 C 37.662 141.402,37.906 141.765,37.906 141.961 C 37.906 142.341,40.267 147.940,42.930 153.878 C 43.353 154.820,44.163 156.770,44.731 158.211 C 46.844 163.571,48.098 166.647,48.746 168.051 C 49.887 170.523,50.903 173.215,50.903 173.765 C 50.903 174.054,51.137 174.381,51.424 174.491 C 51.711 174.601,52.053 175.261,52.183 175.957 L 52.421 177.224 53.286 176.195 C 53.762 175.629,54.152 174.946,54.153 174.677 C 54.154 174.408,54.479 173.656,54.875 173.006 C 55.271 172.356,55.596 171.662,55.596 171.464 C 55.596 171.266,56.262 169.686,57.077 167.953 C 61.162 159.262,62.636 156.076,62.962 155.235 C 63.078 154.937,63.313 154.449,63.484 154.152 C 63.758 153.676,65.937 149.096,67.091 146.570 C 67.318 146.074,67.640 145.424,67.806 145.126 C 68.852 143.250,69.675 141.496,69.675 141.141 C 69.675 140.913,70.000 140.315,70.397 139.810 C 70.794 139.305,71.119 138.600,71.119 138.244 C 71.119 137.888,71.322 137.375,71.570 137.104 C 71.819 136.834,72.200 136.294,72.418 135.905 C 73.212 134.490,74.253 134.307,81.546 134.301 C 89.311 134.295,90.698 134.649,91.208 136.763 C 91.411 137.603,92.234 139.412,93.205 141.155 C 93.579 141.828,93.743 142.180,94.212 143.321 C 94.416 143.818,94.728 144.468,94.905 144.765 C 95.082 145.063,95.640 146.200,96.146 147.292 C 96.652 148.384,97.888 151.024,98.894 153.158 C 99.899 155.292,100.722 157.112,100.722 157.202 C 100.722 157.347,102.823 161.949,104.686 165.884 C 106.175 169.029,106.859 170.642,106.859 171.008 C 106.859 171.219,107.099 171.590,107.391 171.833 C 107.684 172.076,108.026 172.821,108.151 173.489 C 108.276 174.157,108.605 174.892,108.883 175.122 C 109.160 175.352,109.386 175.818,109.386 176.157 C 109.386 177.803,110.906 176.569,111.402 174.520 C 111.543 173.940,111.955 172.897,112.318 172.202 C 112.682 171.507,114.065 168.177,115.392 164.801 C 116.720 161.426,117.930 158.421,118.083 158.123 C 118.759 156.802,119.856 154.261,119.856 154.015 C 119.856 153.867,120.276 152.822,120.789 151.692 C 121.726 149.634,122.294 148.360,123.475 145.668 C 123.824 144.874,124.452 143.475,124.871 142.560 C 125.289 141.644,125.632 140.695,125.632 140.451 C 125.632 140.206,125.957 139.593,126.354 139.088 C 126.751 138.583,127.076 137.872,127.076 137.509 C 127.076 137.146,127.580 136.274,128.196 135.572 L 129.317 134.296 139.050 134.296 C 145.070 134.296,149.050 134.439,149.482 134.670 C 150.444 135.184,150.460 138.173,149.508 139.392 C 149.138 139.865,148.713 140.659,148.563 141.155 C 148.413 141.652,148.086 142.301,147.837 142.599 C 147.588 142.897,147.275 143.750,147.141 144.495 C 147.008 145.239,146.747 145.848,146.561 145.848 C 146.375 145.848,146.124 146.295,146.003 146.841 C 145.882 147.387,145.483 148.484,145.117 149.278 C 144.750 150.072,144.106 151.616,143.684 152.708 C 143.262 153.800,142.687 155.181,142.406 155.776 C 142.125 156.372,141.154 158.646,140.248 160.830 C 138.039 166.159,137.801 166.707,136.887 168.592 C 136.454 169.486,136.099 170.379,136.099 170.578 C 136.098 170.776,135.449 172.221,134.655 173.789 C 133.862 175.357,133.213 176.919,133.213 177.260 C 133.213 177.602,132.888 178.294,132.491 178.799 C 132.094 179.304,131.769 179.939,131.769 180.211 C 131.769 180.483,131.550 181.026,131.281 181.418 C 131.013 181.810,130.676 182.617,130.531 183.213 C 130.387 183.809,130.058 184.540,129.801 184.838 C 129.544 185.135,129.138 185.988,128.899 186.733 C 128.659 187.477,128.314 188.087,128.131 188.087 C 127.948 188.087,127.798 188.422,127.798 188.831 C 127.798 189.528,126.595 192.475,125.427 194.641 C 125.142 195.168,124.910 195.886,124.910 196.237 C 124.910 196.588,124.699 197.131,124.441 197.444 C 124.184 197.758,123.604 198.989,123.152 200.181 C 121.920 203.434,119.282 209.616,117.329 213.832 C 116.931 214.689,116.606 215.571,116.606 215.792 C 116.606 217.047,115.524 217.329,110.714 217.323 C 105.253 217.317,105.503 217.414,104.255 214.801 C 102.140 210.373,101.383 208.819,101.091 208.303 C 100.559 207.367,97.473 200.787,97.473 200.590 C 97.473 200.423,96.311 197.947,91.841 188.584 C 91.166 187.170,90.614 185.758,90.614 185.446 C 90.614 185.135,90.459 184.785,90.270 184.668 C 90.081 184.551,89.416 183.364,88.791 182.029 C 88.167 180.695,87.508 179.359,87.327 179.061 C 87.146 178.764,86.811 178.114,86.581 177.617 C 85.693 175.696,84.416 173.080,84.115 172.563 C 83.941 172.265,83.373 171.077,82.853 169.923 C 81.623 167.195,81.426 167.312,78.991 172.214 C 77.860 174.491,76.763 176.550,76.554 176.790 C 76.345 177.030,76.173 177.339,76.173 177.477 C 76.173 177.792,74.463 181.580,73.991 182.310 C 73.628 182.872,73.383 183.381,71.963 186.531 C 71.498 187.562,70.956 188.506,70.757 188.629 C 70.559 188.751,70.397 189.090,70.397 189.382 C 70.397 189.674,69.524 191.736,68.457 193.964 C 65.541 200.050,63.538 204.355,63.538 204.534 C 63.538 204.912,58.323 215.433,57.688 216.336 L 56.991 217.329 52.197 217.329 C 47.008 217.329,46.639 217.199,46.021 215.162 C 45.870 214.666,45.445 213.694,45.076 213.002 C 44.707 212.310,44.402 211.579,44.398 211.377 C 44.395 211.176,43.748 209.711,42.960 208.123 C 42.173 206.534,41.526 205.045,41.522 204.813 C 41.519 204.581,41.277 203.931,40.984 203.369 C 40.692 202.806,40.217 201.778,39.929 201.083 C 38.546 197.747,37.090 194.299,36.650 193.321 C 36.381 192.726,35.733 191.182,35.208 189.892 C 34.684 188.601,34.020 187.114,33.734 186.587 C 33.447 186.060,33.213 185.308,33.213 184.916 C 33.213 184.524,32.980 184.010,32.695 183.774 C 32.410 183.537,32.067 182.827,31.932 182.195 C 31.798 181.564,31.481 180.803,31.227 180.505 C 30.974 180.208,30.657 179.447,30.522 178.816 C 30.388 178.184,30.062 177.488,29.798 177.268 C 29.534 177.049,29.215 176.323,29.090 175.655 C 28.964 174.987,28.622 174.242,28.330 173.999 C 28.037 173.756,27.798 173.326,27.798 173.042 C 27.798 172.758,27.479 171.925,27.090 171.191 C 26.700 170.456,26.033 169.043,25.607 168.051 C 24.158 164.677,23.897 164.080,23.139 162.431 C 22.723 161.525,22.383 160.647,22.383 160.482 C 22.383 160.316,21.987 159.352,21.504 158.339 C 21.020 157.327,20.289 155.727,19.879 154.783 C 19.469 153.840,18.809 152.367,18.412 151.511 C 18.014 150.654,17.684 149.720,17.678 149.435 C 17.672 149.150,17.428 148.602,17.137 148.216 C 16.845 147.831,16.606 147.293,16.606 147.021 C 16.606 146.530,15.232 143.308,14.235 141.461 C 13.951 140.934,13.718 140.182,13.718 139.790 C 13.718 139.398,13.485 138.884,13.200 138.647 C 12.344 137.937,12.138 136.183,12.792 135.184 L 13.374 134.296 23.084 134.296 C 31.507 134.296,32.933 134.376,33.848 134.901 M171.914 134.946 C 172.285 135.317,172.424 140.510,172.581 159.855 C 172.794 186.043,172.799 186.119,174.696 189.981 C 175.397 191.409,178.316 194.758,179.985 196.050 C 183.333 198.639,192.076 200.427,195.241 199.170 C 195.972 198.879,197.415 198.527,198.448 198.387 C 199.480 198.247,200.515 197.903,200.748 197.622 C 200.981 197.341,201.457 197.112,201.805 197.112 C 202.154 197.112,202.622 196.891,202.845 196.622 C 203.069 196.352,203.983 195.670,204.875 195.106 C 205.768 194.541,206.498 193.958,206.498 193.809 C 206.498 193.661,206.904 193.101,207.401 192.565 C 207.897 192.030,208.303 191.425,208.303 191.221 C 208.303 191.018,208.524 190.595,208.795 190.281 C 210.595 188.195,210.623 187.788,210.823 161.070 L 211.011 136.038 212.050 135.145 L 213.088 134.252 222.281 134.364 L 231.473 134.477 232.183 135.354 C 233.353 136.800,233.046 188.925,231.847 192.376 C 231.407 193.642,231.047 194.848,231.047 195.056 C 231.047 196.090,227.564 202.439,225.812 204.596 C 222.292 208.932,214.623 214.400,211.989 214.453 C 211.649 214.459,210.722 214.779,209.928 215.162 C 209.134 215.546,207.983 215.865,207.371 215.872 C 206.759 215.879,205.188 216.221,203.879 216.631 C 200.898 217.567,181.449 217.582,179.810 216.650 C 179.328 216.376,178.028 216.025,176.922 215.870 C 173.193 215.349,167.443 212.825,163.707 210.070 C 158.193 206.005,153.879 199.692,152.506 193.682 C 152.189 192.292,151.658 190.099,151.326 188.809 C 150.796 186.745,150.710 183.364,150.615 160.808 L 150.506 135.154 151.878 134.759 C 153.933 134.168,171.298 134.329,171.914 134.946 M295.339 135.329 C 296.716 137.030,296.271 150.006,294.802 150.987 C 294.583 151.133,287.067 151.255,278.098 151.258 C 269.130 151.261,261.535 151.362,261.221 151.483 C 260.254 151.854,260.374 166.253,261.348 166.774 C 261.799 167.016,267.723 167.148,278.095 167.148 C 298.041 167.148,295.815 166.105,295.945 175.509 C 296.002 179.639,295.897 182.712,295.688 183.032 C 295.383 183.499,292.933 183.588,277.992 183.674 L 260.650 183.775 260.644 199.559 C 260.641 208.240,260.516 215.536,260.366 215.772 C 259.440 217.229,242.428 217.631,240.162 216.249 L 238.989 215.534 238.989 175.693 C 238.989 132.347,238.861 135.275,240.794 134.547 C 241.092 134.435,253.331 134.374,267.992 134.410 L 294.649 134.477 295.339 135.329 M378.762 134.893 C 379.530 135.588,379.779 149.201,379.049 150.565 C 378.689 151.236,378.153 151.264,365.222 151.264 C 355.240 151.264,351.657 151.375,351.336 151.697 C 351.005 152.027,350.903 159.653,350.903 183.818 L 350.903 215.507 349.926 216.147 C 349.056 216.717,347.952 216.787,339.846 216.787 L 330.744 216.787 329.812 215.912 L 328.881 215.037 328.881 183.369 C 328.881 154.826,328.825 151.680,328.310 151.483 C 327.996 151.362,321.747 151.264,314.424 151.264 C 301.629 151.264,301.094 151.236,300.735 150.565 C 300.055 149.295,300.249 135.740,300.958 134.956 C 301.841 133.981,377.686 133.920,378.762 134.893 M327.726 242.310 C 328.314 242.899,328.270 243.520,327.592 244.198 C 326.824 244.965,63.345 245.080,62.394 244.314 C 61.501 243.595,61.330 242.660,62.019 242.259 C 62.986 241.695,327.161 241.746,327.726 242.310 M139.711 254.146 C 146.810 255.307,152.134 257.569,158.826 262.268 C 162.244 264.668,169.717 274.043,170.817 277.312 C 171.041 277.976,171.355 278.690,171.516 278.898 C 171.932 279.437,173.482 284.562,174.130 287.545 C 177.794 304.399,168.242 323.946,152.545 331.717 C 150.947 332.509,149.152 333.275,148.556 333.421 C 147.960 333.566,147.390 333.810,147.288 333.964 C 147.119 334.218,144.659 334.911,140.975 335.744 C 139.103 336.166,127.328 336.167,125.451 335.745 C 122.454 335.070,120.712 334.547,119.275 333.891 C 118.459 333.518,117.598 333.213,117.363 333.213 C 116.498 333.213,110.574 329.827,107.989 327.856 C 100.984 322.513,95.199 313.769,93.501 305.957 C 93.329 305.162,92.933 303.544,92.623 302.361 C 91.986 299.936,91.857 291.075,92.423 288.628 C 92.607 287.834,92.984 286.198,93.263 284.992 C 93.541 283.787,93.952 282.457,94.177 282.038 C 94.401 281.618,94.586 280.980,94.588 280.619 C 94.593 279.521,97.417 274.015,99.454 271.132 C 105.738 262.240,116.563 255.545,126.895 254.162 C 128.682 253.923,130.388 253.679,130.686 253.620 C 132.215 253.319,136.006 253.539,139.711 254.146 M277.902 269.837 C 281.109 270.326,284.144 271.214,285.108 271.948 C 285.582 272.308,285.777 280.240,285.340 281.378 C 285.037 282.169,284.196 282.094,282.111 281.090 C 280.400 280.266,277.509 279.517,274.656 279.157 C 272.775 278.920,270.131 279.996,269.475 281.266 C 268.018 284.083,269.587 286.143,275.632 289.349 C 286.217 294.964,288.628 298.011,288.628 305.776 C 288.628 318.697,275.274 324.644,261.110 318.032 C 258.420 316.776,258.420 316.779,258.560 311.015 C 258.684 305.876,258.777 305.789,262.109 307.742 C 268.248 311.340,276.276 311.224,277.088 307.525 C 277.758 304.477,276.169 302.749,269.495 299.272 C 268.303 298.651,267.165 297.935,266.966 297.680 C 266.767 297.425,266.260 297.108,265.839 296.974 C 259.579 294.987,255.222 281.497,259.363 276.921 C 259.674 276.578,259.928 276.119,259.928 275.903 C 259.928 275.111,263.240 272.224,265.257 271.259 C 269.012 269.462,272.705 269.046,277.902 269.837 M203.610 270.771 C 205.099 271.204,206.574 271.784,206.888 272.060 C 207.201 272.337,207.610 272.563,207.796 272.563 C 209.327 272.563,213.354 277.527,214.481 280.803 C 218.674 292.991,209.982 304.690,196.733 304.693 C 194.237 304.693,194.224 304.732,194.224 312.110 C 194.224 320.346,194.476 319.984,188.622 320.157 C 182.342 320.342,182.999 323.397,183.115 294.564 C 183.200 273.539,183.284 270.322,183.755 270.000 C 184.833 269.261,200.510 269.870,203.610 270.771 M241.877 270.771 C 248.070 272.948,251.951 278.569,251.068 284.079 C 250.416 288.142,249.690 290.177,248.543 291.157 C 247.342 292.184,247.598 293.012,249.581 294.510 C 259.034 301.646,254.353 316.225,241.549 319.527 C 238.341 320.354,223.167 320.558,221.495 319.797 C 219.886 319.063,219.828 318.105,219.935 293.844 L 220.036 271.055 220.939 270.320 C 222.336 269.181,238.337 269.526,241.877 270.771 M118.773 271.470 C 100.610 276.479,97.810 298.403,114.255 306.838 C 116.459 307.969,116.524 308.180,116.571 314.308 C 116.614 320.032,115.661 319.483,125.565 319.490 C 134.815 319.496,134.296 319.762,134.296 315.009 C 134.296 310.418,134.644 309.813,137.546 309.354 C 141.050 308.800,141.854 307.215,141.869 300.833 C 141.879 296.584,141.917 296.528,145.530 295.445 C 148.114 294.671,148.221 294.155,146.435 291.084 C 144.950 288.530,143.054 284.969,139.265 277.617 C 137.679 274.540,136.034 271.741,135.609 271.398 C 134.466 270.474,122.194 270.527,118.773 271.470 M145.848 271.797 C 145.848 272.368,146.092 273.038,146.390 273.285 C 146.688 273.532,146.931 273.867,146.931 274.028 C 146.931 274.460,147.557 275.800,148.522 277.437 C 149.453 279.014,151.128 282.141,154.323 288.267 C 155.463 290.451,156.540 292.393,156.717 292.581 C 157.817 293.751,156.630 295.177,153.986 295.862 C 151.228 296.577,151.471 296.041,151.264 301.860 L 151.083 306.912 149.581 308.313 C 148.404 309.410,147.688 309.766,146.280 309.952 C 143.858 310.274,143.546 310.910,143.747 315.124 C 143.833 316.922,144.013 318.501,144.146 318.635 C 144.531 319.020,147.851 319.245,149.258 318.981 L 150.542 318.740 150.547 315.056 C 150.553 310.591,150.935 309.608,152.716 309.469 C 157.120 309.127,158.120 307.624,158.128 301.330 C 158.135 296.312,158.333 296.014,162.094 295.343 C 163.550 295.084,164.032 293.407,163.072 291.941 C 162.788 291.508,161.006 288.149,159.112 284.476 C 151.051 268.846,152.484 270.758,148.830 270.758 L 145.848 270.758 145.848 271.797 M194.405 280.235 C 194.288 280.880,194.240 284.413,194.298 288.087 L 194.404 294.765 196.769 294.870 C 206.376 295.297,208.022 282.333,198.689 279.745 C 195.150 278.763,194.661 278.819,194.405 280.235 M231.127 284.928 L 231.227 290.072 232.410 290.186 C 238.350 290.758,242.377 286.057,239.502 281.908 C 238.222 280.061,237.489 279.783,233.902 279.783 L 231.027 279.783 231.127 284.928 M134.916 283.298 C 138.875 285.892,137.041 292.058,132.310 292.058 C 128.775 292.058,126.337 288.107,128.092 285.221 C 129.747 282.500,132.510 281.721,134.916 283.298 M231.288 299.519 C 231.155 299.651,231.047 302.169,231.047 305.114 L 231.047 310.469 234.928 310.461 C 241.117 310.449,243.321 309.016,243.321 305.007 C 243.321 302.478,241.724 300.292,239.405 299.648 C 237.940 299.241,231.665 299.141,231.288 299.519 M295.746 312.846 C 300.048 314.918,298.907 320.578,294.188 320.578 C 289.706 320.578,288.384 315.105,292.358 313.006 C 293.990 312.144,294.262 312.131,295.746 312.846 " stroke="none" fill="#fbfbfb" fill-rule="evenodd"></path><path id="path2" d="M99.278 53.538 C 99.278 77.008,99.381 84.435,99.711 84.765 C 100.170 85.225,161.063 85.433,162.245 84.979 C 162.759 84.782,162.816 81.694,162.816 53.752 L 162.816 22.744 131.047 22.744 L 99.278 22.744 99.278 53.538 M138.142 37.597 C 141.919 39.010,144.411 42.234,145.496 47.112 C 145.937 49.095,145.937 69.394,145.496 70.554 C 145.155 71.451,145.045 71.480,141.967 71.480 C 136.902 71.480,137.273 72.383,137.116 59.659 C 136.989 49.317,136.953 48.854,136.153 47.226 C 134.514 43.891,128.900 43.433,125.724 46.376 L 124.729 47.298 124.549 58.877 C 124.337 72.434,124.670 71.480,120.148 71.480 C 115.533 71.480,115.884 72.905,115.884 54.208 C 115.884 36.466,115.742 37.396,118.528 36.944 C 120.275 36.661,121.530 37.028,122.458 38.096 C 123.255 39.013,124.683 39.288,125.104 38.606 C 126.323 36.633,133.982 36.041,138.142 37.597 " stroke="none" fill="#d4272e" fill-rule="evenodd"></path><path id="path3" d="M130.540 22.269 C 108.124 22.353,99.028 22.502,98.681 22.790 C 97.936 23.408,97.962 84.020,98.707 85.039 C 99.383 85.963,289.267 86.166,290.378 85.245 C 291.016 84.715,291.337 23.005,290.704 22.623 C 290.325 22.395,168.564 22.126,130.540 22.269 M288.899 22.972 C 289.537 23.155,289.937 82.276,289.312 83.905 C 289.114 84.420,286.110 84.477,259.031 84.477 C 232.122 84.477,228.822 84.538,227.571 85.062 C 225.896 85.763,100.602 85.462,99.729 84.754 C 99.375 84.466,99.278 77.788,99.278 53.568 L 99.278 22.748 130.776 22.630 C 170.899 22.479,288.064 22.733,288.899 22.972 M261.363 36.581 C 259.017 37.805,258.094 37.936,257.132 37.179 C 255.921 36.227,249.857 36.115,248.943 37.029 C 248.011 37.961,247.983 38.549,248.091 54.951 C 248.214 73.651,247.759 72.022,252.862 72.022 C 258.024 72.022,257.688 72.800,257.827 60.526 C 257.987 46.380,258.694 44.874,265.013 45.222 C 269.040 45.444,269.152 45.383,270.826 42.058 C 272.558 38.615,272.496 38.081,270.222 36.868 C 268.500 35.950,262.920 35.769,261.363 36.581 M129.061 36.976 C 126.492 37.706,125.376 38.166,125.104 38.606 C 124.683 39.288,123.255 39.013,122.458 38.096 C 121.530 37.028,120.275 36.661,118.528 36.944 C 115.742 37.396,115.884 36.466,115.884 54.208 C 115.884 72.905,115.533 71.480,120.148 71.480 C 124.670 71.480,124.337 72.434,124.549 58.877 L 124.729 47.298 125.724 46.376 C 128.900 43.433,134.514 43.891,136.153 47.226 C 136.953 48.854,136.989 49.317,137.116 59.659 C 137.273 72.383,136.902 71.480,141.967 71.480 C 146.075 71.480,145.852 72.194,145.833 59.092 C 145.817 48.517,145.702 47.158,144.552 43.911 C 142.682 38.630,135.134 35.251,129.061 36.976 M190.856 38.010 C 188.837 38.757,188.707 38.763,187.668 38.167 C 186.439 37.462,182.351 37.305,181.204 37.919 C 180.219 38.446,180.095 79.188,181.076 79.564 C 182.017 79.925,186.637 79.812,187.388 79.410 C 188.010 79.077,188.087 78.624,188.087 75.302 C 188.087 70.687,188.207 70.532,191.334 71.148 C 202.703 73.384,210.830 66.406,210.830 54.408 C 210.830 41.441,201.745 33.983,190.856 38.010 M136.535 37.947 C 137.587 38.168,138.704 38.574,139.018 38.849 C 139.331 39.125,139.765 39.350,139.982 39.350 C 140.200 39.350,141.100 40.176,141.983 41.186 C 144.814 44.422,145.126 46.226,145.126 59.355 L 145.126 70.397 141.899 70.397 C 137.787 70.397,138.118 71.356,137.906 58.845 C 137.730 48.475,137.703 48.156,136.873 46.707 C 135.255 43.884,131.182 42.870,127.617 44.402 C 123.493 46.175,123.466 46.270,123.466 59.009 C 123.466 66.711,123.350 69.647,123.032 69.964 C 122.352 70.644,118.065 70.522,117.267 69.800 C 116.330 68.952,116.238 40.036,117.168 38.708 C 117.953 37.588,120.874 37.559,121.871 38.662 C 123.186 40.114,123.731 40.188,125.558 39.161 C 128.327 37.605,132.637 37.128,136.535 37.947 M269.505 38.068 C 270.918 38.658,270.916 38.681,269.076 42.439 C 268.119 44.394,266.579 45.168,265.884 44.043 C 265.505 43.429,262.501 43.644,261.038 44.391 C 257.038 46.431,256.321 48.864,256.306 60.436 C 256.297 67.396,256.184 69.641,255.815 70.126 C 255.269 70.846,251.986 71.015,250.385 70.406 L 249.458 70.054 249.458 54.199 C 249.458 36.133,249.063 37.906,253.095 37.906 C 255.199 37.906,255.660 38.019,256.040 38.628 C 256.521 39.397,258.614 39.654,259.022 38.995 C 259.802 37.732,267.147 37.083,269.505 38.068 M202.776 39.246 C 203.930 39.774,205.088 40.419,205.351 40.680 C 205.613 40.941,205.938 41.156,206.073 41.158 C 206.357 41.160,207.413 42.870,208.414 44.946 C 210.662 49.610,210.633 59.229,208.358 63.718 C 205.676 69.010,198.739 71.654,191.011 70.329 C 187.475 69.722,187.412 69.803,187.286 75.035 L 187.184 79.242 184.849 79.351 C 183.564 79.412,182.143 79.368,181.690 79.254 L 180.866 79.048 180.866 59.356 C 180.866 46.472,180.996 39.422,181.240 38.965 C 181.730 38.049,186.630 37.924,187.365 38.809 C 187.937 39.499,190.030 39.512,190.596 38.830 C 191.667 37.539,199.638 37.812,202.776 39.246 M190.075 44.050 C 187.349 45.320,187.365 45.256,187.365 54.670 C 187.365 64.209,187.294 63.981,190.614 65.131 C 194.473 66.468,200.700 64.207,201.839 61.055 C 202.027 60.534,202.381 59.717,202.625 59.238 C 203.423 57.673,203.166 50.318,202.242 48.275 C 200.433 44.278,194.221 42.121,190.075 44.050 M197.649 44.783 C 204.158 46.704,204.474 60.834,198.076 63.850 C 194.794 65.397,189.821 65.128,188.649 63.339 C 187.940 62.257,187.813 47.566,188.500 46.059 C 189.338 44.219,193.685 43.613,197.649 44.783 M295.601 76.547 C 293.867 77.462,293.729 77.735,293.791 80.104 C 293.885 83.655,297.407 85.701,299.865 83.632 C 303.973 80.176,300.296 74.067,295.601 76.547 M299.435 77.247 C 300.396 77.613,300.787 79.477,300.004 79.961 C 299.783 80.098,299.854 80.498,300.190 81.010 C 301.667 83.266,297.535 84.809,295.555 82.742 C 292.780 79.845,295.634 75.802,299.435 77.247 M61.771 110.965 C 61.265 111.575,61.596 112.537,62.474 113.006 C 63.412 113.509,326.522 113.486,327.461 112.984 C 328.302 112.533,328.388 110.995,327.588 110.688 C 326.249 110.175,62.199 110.450,61.771 110.965 M326.715 111.530 C 326.715 112.464,63.579 112.577,63.267 111.643 C 63.147 111.282,89.637 111.191,194.916 111.191 C 276.806 111.191,326.715 111.320,326.715 111.530 M12.792 135.184 C 12.138 136.183,12.344 137.937,13.200 138.647 C 13.485 138.884,13.718 139.398,13.718 139.790 C 13.718 140.182,13.951 140.934,14.235 141.461 C 15.232 143.308,16.606 146.530,16.606 147.021 C 16.606 147.293,16.845 147.831,17.137 148.216 C 17.428 148.602,17.672 149.150,17.678 149.435 C 17.684 149.720,18.014 150.654,18.412 151.511 C 18.809 152.367,19.469 153.840,19.879 154.783 C 20.289 155.727,21.020 157.327,21.504 158.339 C 21.987 159.352,22.383 160.316,22.383 160.482 C 22.383 160.647,22.723 161.525,23.139 162.431 C 23.897 164.080,24.158 164.677,25.607 168.051 C 26.033 169.043,26.700 170.456,27.090 171.191 C 27.479 171.925,27.798 172.758,27.798 173.042 C 27.798 173.326,28.037 173.756,28.330 173.999 C 28.622 174.242,28.964 174.987,29.090 175.655 C 29.215 176.323,29.534 177.049,29.798 177.268 C 30.062 177.488,30.388 178.184,30.522 178.816 C 30.657 179.447,30.974 180.208,31.227 180.505 C 31.481 180.803,31.798 181.564,31.932 182.195 C 32.067 182.827,32.410 183.537,32.695 183.774 C 32.980 184.010,33.213 184.524,33.213 184.916 C 33.213 185.308,33.447 186.060,33.734 186.587 C 34.020 187.114,34.684 188.601,35.208 189.892 C 35.733 191.182,36.381 192.726,36.650 193.321 C 37.090 194.299,38.546 197.747,39.929 201.083 C 40.217 201.778,40.692 202.806,40.984 203.369 C 41.277 203.931,41.519 204.581,41.522 204.813 C 41.526 205.045,42.173 206.534,42.960 208.123 C 43.748 209.711,44.395 211.176,44.398 211.377 C 44.402 211.579,44.707 212.310,45.076 213.002 C 45.445 213.694,45.870 214.666,46.021 215.162 C 46.639 217.199,47.008 217.329,52.197 217.329 L 56.991 217.329 57.688 216.336 C 58.323 215.433,63.538 204.912,63.538 204.534 C 63.538 204.355,65.541 200.050,68.457 193.964 C 69.524 191.736,70.397 189.674,70.397 189.382 C 70.397 189.090,70.559 188.751,70.757 188.629 C 70.956 188.506,71.498 187.562,71.963 186.531 C 73.383 183.381,73.628 182.872,73.991 182.310 C 74.463 181.580,76.173 177.792,76.173 177.477 C 76.173 177.339,76.345 177.030,76.554 176.790 C 76.763 176.550,77.860 174.491,78.991 172.214 C 81.426 167.312,81.623 167.195,82.853 169.923 C 83.373 171.077,83.941 172.265,84.115 172.563 C 84.416 173.080,85.693 175.696,86.581 177.617 C 86.811 178.114,87.146 178.764,87.327 179.061 C 87.508 179.359,88.167 180.695,88.791 182.029 C 89.416 183.364,90.081 184.551,90.270 184.668 C 90.459 184.785,90.614 185.135,90.614 185.446 C 90.614 185.758,91.166 187.170,91.841 188.584 C 96.311 197.947,97.473 200.423,97.473 200.590 C 97.473 200.787,100.559 207.367,101.091 208.303 C 101.383 208.819,102.140 210.373,104.255 214.801 C 105.503 217.414,105.253 217.317,110.714 217.323 C 115.524 217.329,116.606 217.047,116.606 215.792 C 116.606 215.571,116.931 214.689,117.329 213.832 C 119.282 209.616,121.920 203.434,123.152 200.181 C 123.604 198.989,124.184 197.758,124.441 197.444 C 124.699 197.131,124.910 196.588,124.910 196.237 C 124.910 195.886,125.142 195.168,125.427 194.641 C 126.595 192.475,127.798 189.528,127.798 188.831 C 127.798 188.422,127.948 188.087,128.131 188.087 C 128.314 188.087,128.659 187.477,128.899 186.733 C 129.138 185.988,129.544 185.135,129.801 184.838 C 130.058 184.540,130.387 183.809,130.531 183.213 C 130.676 182.617,131.013 181.810,131.281 181.418 C 131.550 181.026,131.769 180.483,131.769 180.211 C 131.769 179.939,132.094 179.304,132.491 178.799 C 132.888 178.294,133.213 177.602,133.213 177.260 C 133.213 176.919,133.862 175.357,134.655 173.789 C 135.449 172.221,136.098 170.776,136.099 170.578 C 136.099 170.379,136.454 169.486,136.887 168.592 C 137.801 166.707,138.039 166.159,140.248 160.830 C 141.154 158.646,142.125 156.372,142.406 155.776 C 142.687 155.181,143.262 153.800,143.684 152.708 C 144.106 151.616,144.750 150.072,145.117 149.278 C 145.483 148.484,145.882 147.387,146.003 146.841 C 146.124 146.295,146.375 145.848,146.561 145.848 C 146.747 145.848,147.008 145.239,147.141 144.495 C 147.275 143.750,147.588 142.897,147.837 142.599 C 148.086 142.301,148.413 141.652,148.563 141.155 C 148.713 140.659,149.138 139.865,149.508 139.392 C 150.460 138.173,150.444 135.184,149.482 134.670 C 149.050 134.439,145.070 134.296,139.050 134.296 L 129.317 134.296 128.196 135.572 C 127.580 136.274,127.076 137.146,127.076 137.509 C 127.076 137.872,126.751 138.583,126.354 139.088 C 125.957 139.593,125.632 140.206,125.632 140.451 C 125.632 140.695,125.289 141.644,124.871 142.560 C 124.452 143.475,123.824 144.874,123.475 145.668 C 122.294 148.360,121.726 149.634,120.789 151.692 C 120.276 152.822,119.856 153.867,119.856 154.015 C 119.856 154.261,118.759 156.802,118.083 158.123 C 117.930 158.421,116.720 161.426,115.392 164.801 C 114.065 168.177,112.682 171.507,112.318 172.202 C 111.955 172.897,111.543 173.940,111.402 174.520 C 110.906 176.569,109.386 177.803,109.386 176.157 C 109.386 175.818,109.160 175.352,108.883 175.122 C 108.605 174.892,108.276 174.157,108.151 173.489 C 108.026 172.821,107.684 172.076,107.391 171.833 C 107.099 171.590,106.859 171.219,106.859 171.008 C 106.859 170.642,106.175 169.029,104.686 165.884 C 102.823 161.949,100.722 157.347,100.722 157.202 C 100.722 157.112,99.899 155.292,98.894 153.158 C 97.888 151.024,96.652 148.384,96.146 147.292 C 95.640 146.200,95.082 145.063,94.905 144.765 C 94.728 144.468,94.416 143.818,94.212 143.321 C 93.743 142.180,93.579 141.828,93.205 141.155 C 92.234 139.412,91.411 137.603,91.208 136.763 C 90.460 133.662,74.096 132.915,72.418 135.905 C 72.200 136.294,71.819 136.834,71.570 137.104 C 71.322 137.375,71.119 137.888,71.119 138.244 C 71.119 138.600,70.794 139.305,70.397 139.810 C 70.000 140.315,69.675 140.913,69.675 141.141 C 69.675 141.496,68.852 143.250,67.806 145.126 C 67.640 145.424,67.318 146.074,67.091 146.570 C 65.937 149.096,63.758 153.676,63.484 154.152 C 63.313 154.449,63.078 154.937,62.962 155.235 C 62.636 156.076,61.162 159.262,57.077 167.953 C 56.262 169.686,55.596 171.266,55.596 171.464 C 55.596 171.662,55.271 172.356,54.875 173.006 C 54.479 173.656,54.154 174.408,54.153 174.677 C 54.152 174.946,53.762 175.629,53.286 176.195 L 52.421 177.224 52.183 175.957 C 52.053 175.261,51.711 174.601,51.424 174.491 C 51.137 174.381,50.903 174.054,50.903 173.765 C 50.903 173.215,49.887 170.523,48.746 168.051 C 48.098 166.647,46.844 163.571,44.731 158.211 C 44.163 156.770,43.353 154.820,42.930 153.878 C 40.267 147.940,37.906 142.341,37.906 141.961 C 37.906 141.765,37.662 141.402,37.365 141.155 C 37.067 140.908,36.823 140.483,36.823 140.210 C 36.823 139.937,36.391 138.767,35.862 137.610 C 34.337 134.269,34.441 134.296,23.084 134.296 L 13.374 134.296 12.792 135.184 M151.878 134.759 L 150.506 135.154 150.615 160.808 C 150.710 183.364,150.796 186.745,151.326 188.809 C 151.658 190.099,152.189 192.292,152.506 193.682 C 153.879 199.692,158.193 206.005,163.707 210.070 C 167.443 212.825,173.193 215.349,176.922 215.870 C 178.028 216.025,179.328 216.376,179.810 216.650 C 181.449 217.582,200.898 217.567,203.879 216.631 C 205.188 216.221,206.759 215.879,207.371 215.872 C 207.983 215.865,209.134 215.546,209.928 215.162 C 210.722 214.779,211.649 214.459,211.989 214.453 C 214.623 214.400,222.292 208.932,225.812 204.596 C 227.564 202.439,231.047 196.090,231.047 195.056 C 231.047 194.848,231.407 193.642,231.847 192.376 C 233.046 188.925,233.353 136.800,232.183 135.354 L 231.473 134.477 222.281 134.364 L 213.088 134.252 212.050 135.145 L 211.011 136.038 210.823 161.070 C 210.623 187.788,210.595 188.195,208.795 190.281 C 208.524 190.595,208.303 191.018,208.303 191.221 C 208.303 191.425,207.897 192.030,207.401 192.565 C 206.904 193.101,206.498 193.661,206.498 193.809 C 206.498 193.958,205.768 194.541,204.875 195.106 C 203.983 195.670,203.069 196.352,202.845 196.622 C 202.622 196.891,202.154 197.112,201.805 197.112 C 201.457 197.112,200.981 197.341,200.748 197.622 C 200.515 197.903,199.480 198.247,198.448 198.387 C 197.415 198.527,195.972 198.879,195.241 199.170 C 192.076 200.427,183.333 198.639,179.985 196.050 C 178.316 194.758,175.397 191.409,174.696 189.981 C 172.799 186.119,172.794 186.043,172.581 159.855 C 172.424 140.510,172.285 135.317,171.914 134.946 C 171.298 134.329,153.933 134.168,151.878 134.759 M240.794 134.547 C 238.861 135.275,238.989 132.347,238.989 175.693 L 238.989 215.534 240.162 216.249 C 242.428 217.631,259.440 217.229,260.366 215.772 C 260.516 215.536,260.641 208.240,260.644 199.559 L 260.650 183.775 277.992 183.674 C 292.933 183.588,295.383 183.499,295.688 183.032 C 295.897 182.712,296.002 179.639,295.945 175.509 C 295.815 166.105,298.041 167.148,278.095 167.148 C 267.723 167.148,261.799 167.016,261.348 166.774 C 260.374 166.253,260.254 151.854,261.221 151.483 C 261.535 151.362,269.130 151.261,278.098 151.258 C 287.067 151.255,294.583 151.133,294.802 150.987 C 296.271 150.006,296.716 137.030,295.339 135.329 L 294.649 134.477 267.992 134.410 C 253.331 134.374,241.092 134.435,240.794 134.547 M300.958 134.956 C 300.249 135.740,300.055 149.295,300.735 150.565 C 301.094 151.236,301.629 151.264,314.424 151.264 C 321.747 151.264,327.996 151.362,328.310 151.483 C 328.825 151.680,328.881 154.826,328.881 183.369 L 328.881 215.037 329.812 215.912 L 330.744 216.787 339.846 216.787 C 347.952 216.787,349.056 216.717,349.926 216.147 L 350.903 215.507 350.903 183.818 C 350.903 159.653,351.005 152.027,351.336 151.697 C 351.657 151.375,355.240 151.264,365.222 151.264 C 378.153 151.264,378.689 151.236,379.049 150.565 C 379.779 149.201,379.530 135.588,378.762 134.893 C 377.686 133.920,301.841 133.981,300.958 134.956 M33.999 135.830 C 34.616 136.324,35.279 137.680,37.576 143.141 C 40.608 150.349,41.090 151.498,42.425 154.693 C 43.172 156.480,44.661 160.054,45.735 162.635 C 46.808 165.217,47.986 167.978,48.353 168.773 C 50.262 172.910,50.542 173.589,50.542 174.093 C 50.542 174.394,50.785 174.843,51.083 175.090 C 51.381 175.337,51.625 175.672,51.625 175.833 C 51.625 177.277,52.381 178.059,53.133 177.394 C 53.951 176.671,54.870 174.786,61.153 160.939 C 65.586 151.168,69.300 143.218,71.480 138.829 L 73.105 135.560 80.967 135.462 C 89.629 135.355,90.009 135.431,90.843 137.425 C 91.134 138.121,92.033 140.098,92.840 141.818 C 96.197 148.968,96.797 150.263,99.385 155.957 C 100.874 159.233,102.772 163.375,103.602 165.162 C 104.432 166.949,105.429 169.143,105.817 170.036 C 106.205 170.930,106.680 171.904,106.872 172.202 C 107.065 172.500,107.380 173.110,107.574 173.557 C 109.696 178.466,110.709 178.896,111.751 175.331 C 111.877 174.901,112.274 173.899,112.633 173.105 C 113.399 171.413,115.323 166.808,118.215 159.747 C 119.354 156.968,120.581 154.043,120.943 153.249 C 121.304 152.455,121.951 150.912,122.380 149.819 C 123.122 147.930,123.469 147.135,125.232 143.282 C 125.650 142.367,126.011 141.392,126.033 141.116 C 126.056 140.840,126.665 139.477,127.387 138.087 L 128.700 135.560 139.170 135.560 L 149.639 135.560 149.762 136.429 C 149.830 136.913,149.321 138.431,148.611 139.858 C 147.911 141.266,146.581 144.206,145.656 146.390 C 144.731 148.574,143.649 151.092,143.252 151.986 C 142.855 152.879,142.313 154.097,142.048 154.693 C 141.783 155.289,140.923 157.319,140.137 159.206 C 137.188 166.283,133.816 174.206,133.532 174.729 C 133.369 175.027,132.484 177.058,131.564 179.242 C 130.643 181.426,129.440 184.188,128.890 185.379 C 128.339 186.570,127.130 189.332,126.203 191.516 C 125.276 193.700,124.042 196.543,123.461 197.834 C 122.881 199.125,121.691 201.886,120.818 203.971 C 114.716 218.532,115.940 216.968,110.650 216.968 C 107.976 216.968,106.451 216.817,106.080 216.516 C 105.590 216.118,101.879 208.575,98.577 201.264 C 97.949 199.874,96.888 197.599,96.220 196.209 C 94.260 192.136,91.452 186.203,90.837 184.838 C 90.523 184.143,90.107 183.330,89.912 183.032 C 89.717 182.735,88.250 179.729,86.652 176.354 C 82.187 166.923,82.212 166.968,81.408 166.968 C 80.651 166.968,79.923 168.244,76.569 175.461 C 75.695 177.342,73.688 181.561,72.109 184.838 C 66.873 195.703,65.780 197.991,64.526 200.722 C 62.054 206.107,60.077 210.290,58.484 213.507 L 56.859 216.787 52.186 216.787 L 47.512 216.787 46.048 213.489 C 45.243 211.676,44.390 209.726,44.151 209.157 C 42.546 205.331,40.005 199.340,39.730 198.736 C 39.549 198.339,38.637 196.227,37.702 194.043 C 36.767 191.859,35.684 189.341,35.295 188.448 C 34.375 186.335,33.693 184.756,33.073 183.303 C 32.798 182.658,32.132 181.155,31.593 179.964 C 31.054 178.773,30.401 177.310,30.143 176.715 C 29.884 176.119,29.346 174.901,28.946 174.007 C 28.547 173.114,26.896 169.296,25.278 165.523 C 23.659 161.751,21.707 157.202,20.939 155.415 C 20.171 153.628,18.862 150.542,18.029 148.556 C 15.962 143.627,15.172 141.810,14.768 141.057 C 13.944 139.522,12.949 136.384,13.133 135.904 C 13.409 135.186,33.108 135.116,33.999 135.830 M171.769 135.812 C 172.097 136.141,172.202 142.152,172.202 160.659 L 172.202 185.072 173.063 187.604 C 178.240 202.823,201.208 204.588,209.451 190.400 C 211.734 186.470,211.913 184.141,211.913 158.365 C 211.913 141.642,212.019 136.140,212.347 135.812 C 212.963 135.196,231.080 135.196,231.697 135.812 C 232.214 136.330,232.301 186.599,231.789 188.989 C 231.619 189.783,231.285 191.408,231.047 192.599 C 229.491 200.390,223.147 208.248,215.203 212.225 C 212.768 213.443,210.526 214.440,210.220 214.440 C 209.914 214.440,208.911 214.678,207.991 214.969 C 199.345 217.703,180.304 217.592,175.045 214.777 C 174.699 214.592,174.164 214.440,173.857 214.440 C 171.922 214.440,164.257 209.970,160.919 206.895 C 156.466 202.792,153.335 196.351,152.083 188.717 C 151.149 183.028,150.947 137.049,151.851 136.050 C 152.605 135.217,170.955 134.998,171.769 135.812 M294.874 135.812 C 295.780 136.719,295.452 149.316,294.505 149.980 C 293.807 150.468,291.573 150.542,277.429 150.542 C 265.253 150.542,261.046 150.651,260.722 150.975 C 260.108 151.588,260.108 166.823,260.722 167.437 C 261.046 167.761,265.271 167.870,277.509 167.870 C 293.381 167.870,293.884 167.891,294.585 168.592 C 295.475 169.482,295.718 182.363,294.856 182.921 C 294.607 183.082,286.769 183.294,277.437 183.394 L 260.469 183.574 260.289 199.278 C 260.190 207.915,259.977 215.185,259.816 215.433 C 259.441 216.014,241.483 216.085,240.409 215.511 C 239.370 214.954,239.304 136.374,240.343 135.769 C 241.316 135.202,294.306 135.244,294.874 135.812 M378.842 135.950 C 379.276 137.079,379.085 149.651,378.628 150.108 C 378.307 150.430,374.748 150.542,364.848 150.542 C 352.935 150.542,351.430 150.606,350.841 151.139 C 350.211 151.709,350.181 153.183,350.181 183.377 C 350.181 207.505,350.078 215.121,349.747 215.451 C 348.995 216.203,331.109 216.053,330.263 215.287 C 329.633 214.717,329.603 213.241,329.603 182.989 C 329.603 152.018,329.587 151.280,328.905 150.915 C 328.459 150.677,323.381 150.542,314.897 150.542 C 305.027 150.542,301.477 150.430,301.155 150.108 C 300.698 149.651,300.508 137.079,300.941 135.950 C 301.277 135.075,378.507 135.075,378.842 135.950 M62.019 242.259 C 61.330 242.660,61.501 243.595,62.394 244.314 C 63.345 245.080,326.824 244.965,327.592 244.198 C 328.270 243.520,328.314 242.899,327.726 242.310 C 327.161 241.746,62.986 241.695,62.019 242.259 M326.173 242.960 C 325.118 243.414,63.638 243.414,63.357 242.960 C 63.209 242.720,107.180 242.608,195.015 242.625 C 268.900 242.639,326.578 242.786,326.173 242.960 M130.686 253.620 C 130.388 253.679,128.682 253.923,126.895 254.162 C 116.563 255.545,105.738 262.240,99.454 271.132 C 97.417 274.015,94.593 279.521,94.588 280.619 C 94.586 280.980,94.401 281.618,94.177 282.038 C 93.952 282.457,93.541 283.787,93.263 284.992 C 92.984 286.198,92.607 287.834,92.423 288.628 C 91.857 291.075,91.986 299.936,92.623 302.361 C 92.933 303.544,93.329 305.162,93.501 305.957 C 95.199 313.769,100.984 322.513,107.989 327.856 C 110.574 329.827,116.498 333.213,117.363 333.213 C 117.598 333.213,118.459 333.518,119.275 333.891 C 120.712 334.547,122.454 335.070,125.451 335.745 C 127.328 336.167,139.103 336.166,140.975 335.744 C 144.659 334.911,147.119 334.218,147.288 333.964 C 147.390 333.810,147.960 333.566,148.556 333.421 C 162.702 329.965,176.065 309.531,174.898 293.141 C 174.592 288.847,172.547 280.232,171.516 278.898 C 171.355 278.690,171.041 277.976,170.817 277.312 C 169.717 274.043,162.244 264.668,158.826 262.268 C 149.944 256.032,137.636 252.249,130.686 253.620 M137.945 254.917 C 140.853 255.160,143.064 255.520,143.492 255.819 C 143.884 256.093,144.590 256.318,145.062 256.318 C 148.635 256.318,158.901 262.976,163.766 268.450 C 173.455 279.351,176.567 298.047,170.734 310.313 C 170.350 311.120,170.036 312.054,170.036 312.388 C 170.036 312.723,169.891 312.996,169.714 312.996 C 169.537 312.996,169.301 313.362,169.188 313.809 C 169.004 314.543,166.309 318.812,165.237 320.069 C 161.631 324.295,156.347 328.569,151.882 330.872 C 150.733 331.465,149.434 332.150,148.994 332.395 C 148.555 332.641,147.866 332.844,147.463 332.847 C 147.060 332.850,146.394 333.088,145.981 333.377 C 145.569 333.666,144.242 334.062,143.033 334.256 C 141.823 334.451,140.459 334.817,140.002 335.070 C 138.813 335.727,127.572 335.739,126.424 335.085 C 125.967 334.824,124.603 334.451,123.393 334.256 C 122.184 334.062,120.857 333.666,120.445 333.377 C 120.032 333.088,119.432 332.852,119.111 332.852 C 118.561 332.852,116.232 331.736,112.706 329.781 C 106.671 326.437,96.751 315.328,96.751 311.915 C 96.751 311.677,96.509 311.052,96.214 310.525 C 95.067 308.476,94.362 305.980,93.498 300.903 C 92.739 296.444,93.525 285.792,94.794 283.337 C 95.076 282.792,95.307 282.085,95.307 281.765 C 95.307 281.208,96.532 278.284,97.725 275.993 C 101.201 269.317,108.752 261.840,114.818 259.068 C 115.504 258.755,116.309 258.356,116.606 258.183 C 117.992 257.376,119.820 256.664,121.363 256.330 C 122.291 256.130,123.429 255.796,123.890 255.589 C 124.578 255.280,128.326 254.825,132.349 254.562 C 132.767 254.535,135.285 254.695,137.945 254.917 M269.675 269.831 C 265.686 270.573,259.928 274.160,259.928 275.903 C 259.928 276.119,259.674 276.578,259.363 276.921 C 257.166 279.348,257.226 286.520,259.478 290.614 C 260.470 292.419,264.649 296.596,265.839 296.974 C 266.260 297.108,266.767 297.425,266.966 297.680 C 267.165 297.935,268.303 298.651,269.495 299.272 C 276.169 302.749,277.758 304.477,277.088 307.525 C 276.276 311.224,268.248 311.340,262.109 307.742 C 258.777 305.789,258.684 305.876,258.560 311.015 C 258.420 316.779,258.420 316.776,261.110 318.032 C 271.677 322.965,282.814 320.685,287.478 312.635 C 289.182 309.694,289.240 301.953,287.578 299.097 C 285.458 295.453,282.335 292.905,275.632 289.349 C 269.587 286.143,268.018 284.083,269.475 281.266 C 270.131 279.996,272.775 278.920,274.656 279.157 C 277.509 279.517,280.400 280.266,282.111 281.090 C 285.435 282.690,285.560 282.526,285.560 276.549 C 285.560 271.832,285.619 271.960,282.956 270.976 C 279.160 269.574,273.625 269.097,269.675 269.831 M144.980 270.147 C 144.199 270.718,144.760 273.203,145.904 274.238 C 146.270 274.570,146.570 275.119,146.570 275.459 C 146.570 275.798,146.895 276.489,147.292 276.994 C 147.690 277.499,148.014 278.148,148.014 278.438 C 148.014 278.727,148.307 279.351,148.665 279.825 C 149.957 281.534,155.630 293.258,155.524 293.999 C 155.434 294.623,155.063 294.808,153.430 295.038 C 150.681 295.426,150.542 295.711,150.542 300.942 C 150.542 306.891,149.399 308.589,145.004 309.168 C 142.700 309.472,142.599 309.695,142.599 314.485 C 142.599 320.079,142.711 320.217,147.280 320.217 C 151.245 320.217,151.261 320.196,151.269 315.276 C 151.275 311.160,151.337 311.017,153.249 310.679 C 157.956 309.844,159.206 307.961,159.206 301.701 C 159.206 297.478,159.430 296.751,160.736 296.751 C 163.801 296.751,165.762 292.450,163.535 290.614 C 163.414 290.514,162.791 289.296,162.149 287.906 C 161.507 286.516,160.830 285.135,160.643 284.838 C 160.456 284.540,159.677 283.078,158.912 281.588 C 158.147 280.099,156.603 277.094,155.482 274.910 C 154.360 272.726,153.097 270.654,152.674 270.307 C 151.706 269.511,146.011 269.393,144.980 270.147 M183.755 270.000 C 183.284 270.322,183.200 273.539,183.115 294.564 C 182.999 323.397,182.342 320.342,188.622 320.157 C 194.476 319.984,194.224 320.346,194.224 312.110 C 194.224 304.732,194.237 304.693,196.733 304.693 C 209.982 304.690,218.674 292.991,214.481 280.803 C 213.354 277.527,209.327 272.563,207.796 272.563 C 207.610 272.563,207.201 272.337,206.888 272.060 C 204.932 270.335,185.759 268.627,183.755 270.000 M220.939 270.320 L 220.036 271.055 219.935 293.844 C 219.828 318.105,219.886 319.063,221.495 319.797 C 223.167 320.558,238.341 320.354,241.549 319.527 C 254.353 316.225,259.034 301.646,249.581 294.510 C 247.598 293.012,247.342 292.184,248.543 291.157 C 249.690 290.177,250.416 288.142,251.068 284.079 C 251.951 278.569,248.070 272.948,241.877 270.771 C 238.337 269.526,222.336 269.181,220.939 270.320 M116.787 270.890 C 113.120 272.215,112.272 272.748,109.243 275.632 C 98.844 285.530,100.474 300.549,112.686 307.347 C 115.535 308.934,115.512 308.872,115.519 314.866 C 115.525 321.071,114.671 320.578,125.408 320.578 C 136.289 320.578,135.499 320.981,135.740 315.305 L 135.921 311.054 137.184 310.751 C 141.973 309.599,142.960 308.051,142.960 301.693 L 142.960 297.198 144.639 296.775 C 148.717 295.748,149.338 294.341,147.280 290.794 C 146.703 289.801,145.869 288.186,145.424 287.205 C 144.980 286.223,144.353 284.924,144.030 284.317 C 143.708 283.710,142.016 280.451,140.271 277.076 C 138.526 273.700,136.843 270.736,136.531 270.487 C 135.432 269.614,119.414 269.941,116.787 270.890 M135.609 271.398 C 136.034 271.741,137.679 274.540,139.265 277.617 C 143.054 284.969,144.950 288.530,146.435 291.084 C 148.221 294.155,148.114 294.671,145.530 295.445 C 141.917 296.528,141.879 296.584,141.869 300.833 C 141.854 307.215,141.050 308.800,137.546 309.354 C 134.644 309.813,134.296 310.418,134.296 315.009 C 134.296 319.762,134.815 319.496,125.565 319.490 C 115.661 319.483,116.614 320.032,116.571 314.308 C 116.524 308.180,116.459 307.969,114.255 306.838 C 97.810 298.403,100.610 276.479,118.773 271.470 C 122.194 270.527,134.466 270.474,135.609 271.398 M152.338 271.570 C 152.882 272.411,153.339 273.282,159.112 284.476 C 161.006 288.149,162.788 291.508,163.072 291.941 C 164.032 293.407,163.550 295.084,162.094 295.343 C 158.333 296.014,158.135 296.312,158.128 301.330 C 158.120 307.624,157.120 309.127,152.716 309.469 C 150.935 309.608,150.553 310.591,150.547 315.056 L 150.542 318.740 149.258 318.981 C 147.851 319.245,144.531 319.020,144.146 318.635 C 144.013 318.501,143.833 316.922,143.747 315.124 C 143.546 310.910,143.858 310.274,146.280 309.952 C 147.688 309.766,148.404 309.410,149.581 308.313 L 151.083 306.912 151.264 301.860 C 151.471 296.041,151.228 296.577,153.986 295.862 C 156.630 295.177,157.817 293.751,156.717 292.581 C 156.540 292.393,155.463 290.451,154.323 288.267 C 151.128 282.141,149.453 279.014,148.522 277.437 C 147.557 275.800,146.931 274.460,146.931 274.028 C 146.931 273.867,146.688 273.532,146.390 273.285 C 146.092 273.038,145.848 272.368,145.848 271.797 L 145.848 270.758 148.830 270.758 C 151.526 270.758,151.862 270.836,152.338 271.570 M200.749 271.338 C 208.804 272.710,213.285 277.204,213.997 284.625 C 215.077 295.874,209.290 302.430,197.411 303.411 C 192.885 303.786,193.002 303.572,192.780 311.860 L 192.599 318.592 188.177 318.693 L 183.755 318.795 183.755 294.983 C 183.755 272.610,183.793 271.162,184.386 271.007 C 186.089 270.562,197.554 270.794,200.749 271.338 M239.433 271.359 C 243.152 272.107,247.292 274.233,247.292 275.395 C 247.292 275.605,247.507 275.906,247.769 276.065 C 250.039 277.438,250.687 284.438,248.912 288.394 C 248.364 289.615,247.802 290.614,247.662 290.614 C 247.317 290.614,246.569 292.308,246.578 293.068 C 246.583 293.406,247.314 294.170,248.204 294.765 C 254.046 298.675,254.742 307.685,249.686 313.938 C 248.061 315.949,248.133 315.897,244.572 317.605 L 242.114 318.783 231.797 318.688 L 221.480 318.592 221.387 295.245 C 221.304 274.376,221.355 271.837,221.864 271.328 C 222.703 270.489,235.221 270.511,239.433 271.359 M280.753 271.522 C 285.007 272.689,284.838 272.462,284.838 276.982 C 284.838 281.306,284.733 281.453,282.590 280.146 C 281.940 279.749,281.062 279.424,280.640 279.424 C 280.217 279.423,279.288 279.179,278.576 278.881 C 274.847 277.323,269.117 278.722,268.231 281.408 C 267.096 284.849,269.506 287.621,276.783 291.241 C 280.980 293.330,280.938 293.300,283.908 296.209 C 290.427 302.594,288.840 313.665,280.809 317.831 C 279.811 318.349,278.552 318.773,278.011 318.773 C 277.469 318.773,276.160 319.030,275.101 319.344 C 271.363 320.454,263.330 318.850,260.175 316.364 C 259.190 315.587,259.181 315.543,259.283 311.851 C 259.404 307.486,259.210 307.585,263.538 309.682 C 267.304 311.508,273.863 311.860,276.131 310.359 C 280.517 307.457,278.387 302.187,271.626 299.213 C 262.944 295.394,259.079 290.585,259.059 283.574 C 259.029 273.363,268.429 268.141,280.753 271.522 M193.342 279.142 C 192.692 280.069,192.509 293.958,193.133 294.946 C 193.751 295.923,199.295 295.920,201.172 294.942 C 206.359 292.239,207.396 285.031,203.181 280.982 C 200.600 278.503,194.578 277.377,193.342 279.142 M230.845 278.851 C 229.950 279.505,229.603 288.691,230.415 290.253 C 231.439 292.223,237.359 291.416,239.715 288.985 C 241.711 286.926,241.758 282.740,239.809 280.611 C 237.950 278.582,232.641 277.539,230.845 278.851 M198.689 279.745 C 208.022 282.333,206.376 295.297,196.769 294.870 L 194.404 294.765 194.298 288.087 C 194.140 278.137,193.981 278.439,198.689 279.745 M237.627 280.107 C 238.095 280.285,238.939 281.095,239.502 281.908 C 242.377 286.057,238.350 290.758,232.410 290.186 L 231.227 290.072 231.127 284.928 L 231.027 279.783 233.902 279.783 C 235.483 279.783,237.159 279.929,237.627 280.107 M131.229 282.573 C 129.480 283.023,127.437 285.521,127.437 287.207 C 127.437 291.923,133.934 293.801,136.407 289.800 C 138.569 286.301,135.171 281.558,131.229 282.573 M134.104 284.268 C 135.836 284.992,136.463 287.035,135.546 288.967 C 134.110 291.994,129.802 291.664,128.840 288.453 C 127.841 285.121,130.702 282.846,134.104 284.268 M230.360 299.332 C 229.575 301.585,229.850 309.995,230.739 310.883 C 232.000 312.144,239.628 311.636,241.697 310.154 C 245.716 307.273,244.400 298.917,239.927 298.917 C 239.435 298.917,238.931 298.755,238.809 298.556 C 238.682 298.351,236.891 298.195,234.671 298.195 L 230.757 298.195 230.360 299.332 M239.405 299.648 C 241.724 300.292,243.321 302.478,243.321 305.007 C 243.321 309.016,241.117 310.449,234.928 310.461 L 231.047 310.469 231.047 305.114 C 231.047 302.169,231.155 299.651,231.288 299.519 C 231.665 299.141,237.940 299.241,239.405 299.648 M292.358 313.006 C 288.384 315.105,289.706 320.578,294.188 320.578 C 298.907 320.578,300.048 314.918,295.746 312.846 C 294.262 312.131,293.990 312.144,292.358 313.006 M295.819 313.577 C 296.555 313.859,296.559 315.020,295.824 315.302 C 295.455 315.444,295.298 315.865,295.373 316.514 C 295.525 317.835,296.533 317.837,296.685 316.516 C 296.849 315.087,297.473 315.292,297.473 316.775 C 297.473 319.020,295.030 320.780,292.996 320.000 C 292.608 319.851,292.526 319.598,292.733 319.188 C 293.264 318.138,293.006 315.698,292.288 314.980 C 291.127 313.820,293.743 312.780,295.819 313.577 " stroke="none" fill="#9c9ea8" fill-rule="evenodd"></path><path id="path4" d="M195.126 22.721 C 213.195 22.838,228.019 22.972,228.069 23.019 C 228.659 23.578,228.071 83.422,227.469 84.166 L 226.778 85.018 194.470 85.018 C 176.701 85.018,162.350 85.137,162.579 85.283 C 163.485 85.859,226.272 85.603,227.673 85.018 C 228.790 84.551,233.126 84.477,259.031 84.477 C 286.110 84.477,289.114 84.420,289.312 83.905 C 289.937 82.276,289.537 23.155,288.899 22.972 C 288.551 22.873,259.919 22.728,225.271 22.650 C 190.623 22.572,177.058 22.604,195.126 22.721 M270.222 36.868 C 272.496 38.081,272.558 38.615,270.826 42.058 C 269.152 45.383,269.040 45.444,265.013 45.222 C 258.694 44.874,257.987 46.380,257.827 60.526 C 257.688 72.800,258.024 72.022,252.862 72.022 C 247.759 72.022,248.214 73.651,248.091 54.951 C 247.983 38.549,248.011 37.961,248.943 37.029 C 249.857 36.115,255.921 36.227,257.132 37.179 C 258.094 37.936,259.017 37.805,261.363 36.581 C 262.920 35.769,268.500 35.950,270.222 36.868 M191.198 37.244 C 189.197 37.952,189.005 37.961,187.847 37.409 C 187.053 37.031,185.664 36.823,183.923 36.823 C 179.393 36.823,179.783 34.749,179.783 58.832 C 179.783 82.623,179.271 80.144,184.192 80.144 C 188.609 80.144,188.809 79.942,188.809 75.452 C 188.809 71.274,188.743 71.347,191.998 71.906 C 200.026 73.282,207.538 69.322,210.264 62.274 C 211.282 59.644,211.509 49.438,210.605 46.988 C 207.565 38.759,199.029 34.472,191.198 37.244 M200.089 37.706 C 207.414 39.456,210.830 44.769,210.830 54.408 C 210.830 66.406,202.703 73.384,191.334 71.148 C 188.207 70.532,188.087 70.687,188.087 75.302 C 188.087 78.624,188.010 79.077,187.388 79.410 C 186.637 79.812,182.017 79.925,181.076 79.564 C 180.095 79.188,180.219 38.446,181.204 37.919 C 182.351 37.305,186.439 37.462,187.668 38.167 C 188.707 38.763,188.837 38.757,190.856 38.010 C 193.346 37.089,197.004 36.968,200.089 37.706 M190.395 44.604 C 188.198 45.416,188.087 45.906,188.087 54.723 C 188.087 63.743,188.145 63.942,190.990 64.625 C 199.237 66.603,204.841 59.034,202.021 49.727 C 200.656 45.220,195.215 42.823,190.395 44.604 M198.754 45.798 C 203.762 49.737,203.067 60.796,197.641 63.505 C 195.435 64.607,190.161 64.527,189.321 63.379 C 188.622 62.422,188.567 46.658,189.260 45.767 C 190.249 44.496,197.127 44.518,198.754 45.798 M296.143 77.259 C 293.161 78.460,294.573 83.755,297.875 83.755 C 299.755 83.755,301.012 82.265,300.190 81.010 C 299.854 80.498,299.783 80.098,300.004 79.961 C 302.194 78.608,298.760 76.204,296.143 77.259 M63.267 111.643 C 63.579 112.577,326.715 112.464,326.715 111.530 C 326.715 111.320,276.806 111.191,194.916 111.191 C 89.637 111.191,63.147 111.282,63.267 111.643 M13.133 135.904 C 12.949 136.384,13.944 139.522,14.768 141.057 C 15.172 141.810,15.962 143.627,18.029 148.556 C 18.862 150.542,20.171 153.628,20.939 155.415 C 21.707 157.202,23.659 161.751,25.278 165.523 C 26.896 169.296,28.547 173.114,28.946 174.007 C 29.346 174.901,29.884 176.119,30.143 176.715 C 30.401 177.310,31.054 178.773,31.593 179.964 C 32.132 181.155,32.798 182.658,33.073 183.303 C 33.693 184.756,34.375 186.335,35.295 188.448 C 35.684 189.341,36.767 191.859,37.702 194.043 C 38.637 196.227,39.549 198.339,39.730 198.736 C 40.005 199.340,42.546 205.331,44.151 209.157 C 44.390 209.726,45.243 211.676,46.048 213.489 L 47.512 216.787 52.186 216.787 L 56.859 216.787 58.484 213.507 C 60.077 210.290,62.054 206.107,64.526 200.722 C 65.780 197.991,66.873 195.703,72.109 184.838 C 73.688 181.561,75.695 177.342,76.569 175.461 C 79.923 168.244,80.651 166.968,81.408 166.968 C 82.212 166.968,82.187 166.923,86.652 176.354 C 88.250 179.729,89.717 182.735,89.912 183.032 C 90.107 183.330,90.523 184.143,90.837 184.838 C 91.452 186.203,94.260 192.136,96.220 196.209 C 96.888 197.599,97.949 199.874,98.577 201.264 C 101.879 208.575,105.590 216.118,106.080 216.516 C 106.847 217.139,114.459 217.139,115.201 216.516 C 115.497 216.268,116.524 214.197,117.484 211.913 C 118.444 209.630,119.944 206.056,120.818 203.971 C 121.691 201.886,122.881 199.125,123.461 197.834 C 124.042 196.543,125.276 193.700,126.203 191.516 C 127.130 189.332,128.339 186.570,128.890 185.379 C 129.440 184.188,130.643 181.426,131.564 179.242 C 132.484 177.058,133.369 175.027,133.532 174.729 C 133.816 174.206,137.188 166.283,140.137 159.206 C 140.923 157.319,141.783 155.289,142.048 154.693 C 142.313 154.097,142.855 152.879,143.252 151.986 C 143.649 151.092,144.731 148.574,145.656 146.390 C 146.581 144.206,147.911 141.266,148.611 139.858 C 149.321 138.431,149.830 136.913,149.762 136.429 L 149.639 135.560 139.170 135.560 L 128.700 135.560 127.387 138.087 C 126.665 139.477,126.056 140.840,126.033 141.116 C 126.011 141.392,125.650 142.367,125.232 143.282 C 123.469 147.135,123.122 147.930,122.380 149.819 C 121.951 150.912,121.304 152.455,120.943 153.249 C 120.581 154.043,119.354 156.968,118.215 159.747 C 115.323 166.808,113.399 171.413,112.633 173.105 C 112.274 173.899,111.877 174.901,111.751 175.331 C 110.709 178.896,109.696 178.466,107.574 173.557 C 107.380 173.110,107.065 172.500,106.872 172.202 C 106.680 171.904,106.205 170.930,105.817 170.036 C 105.429 169.143,104.432 166.949,103.602 165.162 C 102.772 163.375,100.874 159.233,99.385 155.957 C 96.797 150.263,96.197 148.968,92.840 141.818 C 92.033 140.098,91.134 138.121,90.843 137.425 C 90.009 135.431,89.629 135.355,80.967 135.462 L 73.105 135.560 71.480 138.829 C 69.300 143.218,65.586 151.168,61.153 160.939 C 58.370 167.072,57.844 168.218,55.326 173.646 C 53.298 178.016,51.625 179.005,51.625 175.833 C 51.625 175.672,51.381 175.337,51.083 175.090 C 50.785 174.843,50.542 174.394,50.542 174.093 C 50.542 173.589,50.262 172.910,48.353 168.773 C 47.986 167.978,46.808 165.217,45.735 162.635 C 44.661 160.054,43.172 156.480,42.425 154.693 C 41.090 151.498,40.608 150.349,37.576 143.141 C 35.279 137.680,34.616 136.324,33.999 135.830 C 33.108 135.116,13.409 135.186,13.133 135.904 M151.851 136.050 C 150.947 137.049,151.149 183.028,152.083 188.717 C 154.038 200.636,159.425 207.849,170.193 212.965 C 171.901 213.776,173.550 214.440,173.857 214.440 C 174.164 214.440,174.699 214.592,175.045 214.777 C 180.304 217.592,199.345 217.703,207.991 214.969 C 208.911 214.678,209.914 214.440,210.220 214.440 C 210.526 214.440,212.768 213.443,215.203 212.225 C 223.147 208.248,229.491 200.390,231.047 192.599 C 231.285 191.408,231.619 189.783,231.789 188.989 C 232.301 186.599,232.214 136.330,231.697 135.812 C 231.382 135.498,228.728 135.379,222.022 135.379 C 215.315 135.379,212.661 135.498,212.347 135.812 C 212.019 136.140,211.913 141.642,211.913 158.365 C 211.913 184.141,211.734 186.470,209.451 190.400 C 201.208 204.588,178.240 202.823,173.063 187.604 L 172.202 185.072 172.202 160.659 C 172.202 142.152,172.097 136.141,171.769 135.812 C 170.955 134.998,152.605 135.217,151.851 136.050 M240.343 135.769 C 239.304 136.374,239.370 214.954,240.409 215.511 C 241.483 216.085,259.441 216.014,259.816 215.433 C 259.977 215.185,260.190 207.915,260.289 199.278 L 260.469 183.574 277.437 183.394 C 286.769 183.294,294.607 183.082,294.856 182.921 C 295.718 182.363,295.475 169.482,294.585 168.592 C 293.884 167.891,293.381 167.870,277.509 167.870 C 265.271 167.870,261.046 167.761,260.722 167.437 C 260.108 166.823,260.108 151.588,260.722 150.975 C 261.046 150.651,265.253 150.542,277.429 150.542 C 291.573 150.542,293.807 150.468,294.505 149.980 C 295.452 149.316,295.780 136.719,294.874 135.812 C 294.306 135.244,241.316 135.202,240.343 135.769 M300.941 135.950 C 300.508 137.079,300.698 149.651,301.155 150.108 C 301.477 150.430,305.027 150.542,314.897 150.542 C 323.381 150.542,328.459 150.677,328.905 150.915 C 329.587 151.280,329.603 152.018,329.603 182.989 C 329.603 213.241,329.633 214.717,330.263 215.287 C 331.109 216.053,348.995 216.203,349.747 215.451 C 350.078 215.121,350.181 207.505,350.181 183.377 C 350.181 153.183,350.211 151.709,350.841 151.139 C 351.430 150.606,352.935 150.542,364.848 150.542 C 374.748 150.542,378.307 150.430,378.628 150.108 C 379.085 149.651,379.276 137.079,378.842 135.950 C 378.507 135.075,301.277 135.075,300.941 135.950 M33.308 136.128 C 33.868 136.383,34.501 137.337,35.163 138.926 C 35.716 140.251,36.788 142.798,37.545 144.585 C 38.776 147.490,39.511 149.248,42.831 157.220 C 43.327 158.412,43.869 159.711,44.036 160.108 C 44.582 161.408,45.834 164.229,46.570 165.818 C 46.968 166.675,47.293 167.528,47.294 167.713 C 47.295 167.899,47.945 169.333,48.738 170.901 C 49.531 172.468,50.181 174.032,50.181 174.376 C 50.181 174.720,50.414 175.195,50.699 175.432 C 50.984 175.669,51.319 176.327,51.444 176.895 C 51.931 179.111,53.987 178.794,54.735 176.387 C 54.864 175.972,55.660 174.170,56.505 172.383 C 58.877 167.360,60.406 164.055,62.440 159.552 C 63.468 157.277,64.695 154.603,65.167 153.610 C 65.639 152.617,66.420 150.912,66.903 149.819 C 71.178 140.154,73.240 136.198,74.126 135.960 C 74.557 135.845,78.007 135.748,81.792 135.745 L 88.674 135.740 89.644 136.753 C 90.177 137.309,90.614 137.901,90.614 138.067 C 90.614 138.364,90.996 139.228,93.335 144.224 C 94.972 147.718,96.525 151.115,98.440 155.389 C 99.336 157.389,100.606 160.162,101.263 161.552 C 101.919 162.942,103.217 165.704,104.147 167.690 C 105.991 171.626,106.524 172.728,107.114 173.827 C 107.327 174.224,107.930 175.483,108.455 176.625 C 108.979 177.766,109.536 178.700,109.691 178.700 C 110.189 178.700,111.823 176.745,112.104 175.812 C 112.253 175.316,112.678 174.344,113.047 173.652 C 113.416 172.960,113.718 172.239,113.718 172.051 C 113.718 171.862,114.059 170.966,114.475 170.060 C 115.961 166.824,116.233 166.203,117.646 162.816 C 118.433 160.930,119.828 157.599,120.747 155.415 C 121.665 153.231,122.671 150.794,122.981 150.000 C 123.291 149.206,123.852 147.888,124.227 147.072 C 124.603 146.256,124.910 145.417,124.910 145.206 C 124.910 144.996,125.145 144.364,125.434 143.802 C 126.217 142.274,127.335 139.649,127.635 138.635 C 127.780 138.143,128.237 137.282,128.650 136.724 L 129.402 135.708 139.052 135.814 C 149.732 135.932,149.747 135.936,148.725 138.087 C 148.348 138.881,148.031 139.693,148.021 139.892 C 148.011 140.090,147.358 141.552,146.570 143.141 C 145.783 144.729,145.136 146.155,145.132 146.310 C 145.129 146.464,144.577 147.764,143.906 149.198 C 142.385 152.446,141.979 153.363,139.876 158.303 C 138.945 160.487,137.969 162.762,137.707 163.357 C 137.444 163.953,136.797 165.496,136.270 166.787 C 135.742 168.078,135.096 169.621,134.835 170.217 C 134.573 170.812,133.923 172.356,133.391 173.646 C 132.859 174.937,132.293 176.248,132.133 176.560 C 131.974 176.872,131.399 178.253,130.855 179.628 C 129.953 181.913,129.352 183.276,126.884 188.628 C 126.427 189.621,125.628 191.489,125.109 192.780 C 124.590 194.070,123.947 195.532,123.680 196.029 C 123.413 196.525,122.188 199.287,120.959 202.166 C 119.729 205.045,118.020 209.025,117.160 211.011 C 116.300 212.996,115.488 214.986,115.356 215.432 C 115.040 216.495,114.245 216.658,109.994 216.532 C 106.003 216.413,106.392 216.692,104.568 212.635 C 104.076 211.543,102.950 209.106,102.065 207.220 C 101.179 205.334,99.885 202.572,99.189 201.083 C 98.493 199.594,97.072 196.589,96.031 194.405 C 94.990 192.221,93.992 190.109,93.814 189.712 C 93.635 189.314,93.005 188.099,92.413 187.011 C 91.820 185.923,91.336 184.848,91.336 184.623 C 91.336 184.397,91.033 183.825,90.663 183.352 C 90.294 182.878,89.866 182.092,89.713 181.605 C 89.560 181.118,89.213 180.497,88.942 180.226 C 88.670 179.954,88.448 179.484,88.448 179.182 C 88.448 178.879,88.212 178.200,87.923 177.673 C 87.635 177.146,86.646 175.090,85.726 173.105 C 81.272 163.495,81.383 163.480,76.408 174.389 C 75.643 176.065,74.795 177.924,74.522 178.520 C 74.249 179.116,73.860 180.009,73.657 180.505 C 73.453 181.002,73.134 181.652,72.946 181.949 C 72.759 182.247,71.602 184.603,70.374 187.184 C 69.147 189.765,67.203 193.827,66.054 196.209 C 60.424 207.886,58.559 211.828,58.336 212.534 C 58.201 212.957,57.720 214.006,57.266 214.865 L 56.440 216.426 52.206 216.426 L 47.971 216.426 45.797 211.372 C 41.565 201.532,40.344 198.720,39.670 197.269 C 39.296 196.461,38.989 195.690,38.989 195.555 C 38.989 195.420,38.484 194.212,37.866 192.871 C 37.248 191.530,36.428 189.702,36.043 188.809 C 34.656 185.591,33.804 183.686,31.602 178.881 C 31.055 177.690,30.473 176.390,30.308 175.993 C 30.142 175.596,29.500 174.052,28.881 172.563 C 28.262 171.074,27.613 169.531,27.439 169.134 C 27.264 168.736,25.400 164.350,23.295 159.386 C 21.190 154.422,19.326 150.036,19.153 149.639 C 17.920 146.813,16.192 142.917,15.190 140.704 C 13.424 136.803,13.347 136.505,14.010 136.118 C 14.866 135.619,32.210 135.628,33.308 136.128 M171.360 136.221 C 171.526 136.386,171.746 147.921,171.850 161.853 C 172.060 189.893,171.947 188.587,174.467 192.170 C 176.522 195.092,182.349 199.278,184.362 199.278 C 184.562 199.278,185.245 199.537,185.879 199.853 C 187.517 200.670,196.774 200.431,198.375 199.531 C 198.971 199.196,199.812 198.920,200.245 198.919 C 200.678 198.918,201.267 198.681,201.555 198.393 C 201.843 198.105,202.523 197.758,203.067 197.622 C 204.541 197.251,209.222 192.485,210.162 190.396 C 212.411 185.396,212.386 185.727,212.532 160.127 C 212.623 144.043,212.788 136.533,213.056 136.210 C 213.648 135.497,229.906 135.535,230.888 136.252 C 231.722 136.862,232.186 182.273,231.406 187.004 C 230.442 192.851,229.211 197.644,228.531 198.195 C 228.409 198.294,227.828 199.339,227.241 200.517 C 226.206 202.593,221.469 207.834,219.543 209.034 C 219.073 209.327,218.334 209.837,217.900 210.168 C 211.951 214.704,195.682 217.730,185.199 216.252 C 178.079 215.248,174.784 214.455,171.480 212.951 C 161.447 208.383,156.610 202.867,153.316 192.238 C 151.885 187.622,151.320 137.952,152.680 136.314 C 153.239 135.641,170.694 135.554,171.360 136.221 M294.465 136.221 C 295.154 136.910,295.070 148.836,294.373 149.345 C 293.860 149.720,290.278 149.819,277.232 149.819 C 262.326 149.819,260.691 149.877,260.243 150.417 C 259.855 150.884,259.747 152.794,259.747 159.206 C 259.747 165.619,259.855 167.528,260.243 167.995 C 260.690 168.534,262.336 168.593,277.210 168.598 C 286.971 168.601,293.903 168.743,294.224 168.946 C 294.829 169.329,295.053 181.963,294.465 182.551 C 294.299 182.717,286.594 182.897,277.341 182.953 C 265.839 183.022,260.368 183.178,260.042 183.448 C 259.662 183.764,259.567 186.981,259.567 199.461 L 259.567 215.078 258.755 215.296 C 257.690 215.581,241.745 215.589,241.004 215.304 C 240.488 215.106,240.433 211.287,240.433 175.762 L 240.433 136.439 241.245 136.108 C 242.263 135.692,294.046 135.803,294.465 136.221 M378.520 142.780 L 378.520 149.639 364.560 149.819 C 356.883 149.919,350.528 150.081,350.440 150.181 C 349.516 151.215,349.458 153.153,349.458 183.508 L 349.458 215.078 348.646 215.296 C 347.221 215.678,331.771 215.550,331.023 215.150 C 330.341 214.785,330.325 214.048,330.325 183.089 C 330.325 156.300,330.246 151.293,329.813 150.701 C 329.325 150.034,328.630 149.991,315.282 149.819 L 301.264 149.639 301.165 143.153 C 301.110 139.586,301.146 136.458,301.244 136.202 C 301.389 135.826,308.791 135.754,339.971 135.829 L 378.520 135.921 378.520 142.780 M63.357 242.960 C 63.638 243.414,325.118 243.414,326.173 242.960 C 326.578 242.786,268.900 242.639,195.015 242.625 C 107.180 242.608,63.209 242.720,63.357 242.960 M128.159 254.912 C 126.273 255.077,124.352 255.381,123.890 255.589 C 123.429 255.796,122.291 256.130,121.363 256.330 C 119.820 256.664,117.992 257.376,116.606 258.183 C 116.309 258.356,115.504 258.755,114.818 259.068 C 108.752 261.840,101.201 269.317,97.725 275.993 C 96.532 278.284,95.307 281.208,95.307 281.765 C 95.307 282.085,95.076 282.792,94.794 283.337 C 92.125 288.499,92.974 304.738,96.214 310.525 C 96.509 311.052,96.751 311.677,96.751 311.915 C 96.751 315.328,106.671 326.437,112.706 329.781 C 116.232 331.736,118.561 332.852,119.111 332.852 C 119.432 332.852,120.032 333.088,120.445 333.377 C 120.857 333.666,122.184 334.062,123.393 334.256 C 124.603 334.451,125.967 334.824,126.424 335.085 C 127.572 335.739,138.813 335.727,140.002 335.070 C 140.459 334.817,141.823 334.451,143.033 334.256 C 144.242 334.062,145.569 333.666,145.981 333.377 C 146.394 333.088,147.060 332.850,147.463 332.847 C 147.866 332.844,148.555 332.641,148.994 332.395 C 149.434 332.150,150.733 331.465,151.882 330.872 C 156.347 328.569,161.631 324.295,165.237 320.069 C 166.309 318.812,169.004 314.543,169.188 313.809 C 169.301 313.362,169.537 312.996,169.714 312.996 C 169.891 312.996,170.036 312.723,170.036 312.388 C 170.036 312.054,170.350 311.120,170.734 310.313 C 174.395 302.615,174.382 288.169,170.708 279.503 C 166.900 270.521,159.375 262.580,150.903 258.601 C 146.610 256.585,145.926 256.318,145.062 256.318 C 144.590 256.318,143.884 256.093,143.492 255.819 C 142.854 255.373,134.450 254.425,132.349 254.562 C 131.931 254.590,130.045 254.747,128.159 254.912 M152.674 270.307 C 153.097 270.654,154.360 272.726,155.482 274.910 C 156.603 277.094,158.147 280.099,158.912 281.588 C 159.677 283.078,160.456 284.540,160.643 284.838 C 160.830 285.135,161.507 286.516,162.149 287.906 C 162.791 289.296,163.414 290.514,163.535 290.614 C 165.762 292.450,163.801 296.751,160.736 296.751 C 159.430 296.751,159.206 297.478,159.206 301.701 C 159.206 307.961,157.956 309.844,153.249 310.679 C 151.337 311.017,151.275 311.160,151.269 315.276 C 151.261 320.196,151.245 320.217,147.280 320.217 C 142.711 320.217,142.599 320.079,142.599 314.485 C 142.599 309.695,142.700 309.472,145.004 309.168 C 149.399 308.589,150.542 306.891,150.542 300.942 C 150.542 295.711,150.681 295.426,153.430 295.038 C 155.063 294.808,155.434 294.623,155.524 293.999 C 155.630 293.258,149.957 281.534,148.665 279.825 C 148.307 279.351,148.014 278.727,148.014 278.438 C 148.014 278.148,147.690 277.499,147.292 276.994 C 146.895 276.489,146.570 275.798,146.570 275.459 C 146.570 275.119,146.270 274.570,145.904 274.238 C 144.760 273.203,144.199 270.718,144.980 270.147 C 146.011 269.393,151.706 269.511,152.674 270.307 M136.531 270.487 C 136.843 270.736,138.526 273.700,140.271 277.076 C 142.016 280.451,143.708 283.710,144.030 284.317 C 144.353 284.924,144.980 286.223,145.424 287.205 C 145.869 288.186,146.703 289.801,147.280 290.794 C 149.338 294.341,148.717 295.748,144.639 296.775 L 142.960 297.198 142.960 301.693 C 142.960 308.051,141.973 309.599,137.184 310.751 L 135.921 311.054 135.740 315.305 C 135.499 320.981,136.289 320.578,125.408 320.578 C 114.671 320.578,115.525 321.071,115.519 314.866 C 115.512 308.872,115.535 308.934,112.686 307.347 C 100.474 300.549,98.844 285.530,109.243 275.632 C 112.272 272.748,113.120 272.215,116.787 270.890 C 119.414 269.941,135.432 269.614,136.531 270.487 M184.386 271.007 C 183.793 271.162,183.755 272.610,183.755 294.983 L 183.755 318.795 188.177 318.693 L 192.599 318.592 192.780 311.860 C 193.002 303.572,192.885 303.786,197.411 303.411 C 209.290 302.430,215.077 295.874,213.997 284.625 C 213.285 277.204,208.804 272.710,200.749 271.338 C 197.554 270.794,186.089 270.562,184.386 271.007 M221.864 271.328 C 221.355 271.837,221.304 274.376,221.387 295.245 L 221.480 318.592 231.797 318.688 L 242.114 318.783 244.572 317.605 C 248.133 315.897,248.061 315.949,249.686 313.938 C 254.742 307.685,254.046 298.675,248.204 294.765 C 247.314 294.170,246.583 293.406,246.578 293.068 C 246.569 292.308,247.317 290.614,247.662 290.614 C 247.802 290.614,248.364 289.615,248.912 288.394 C 250.687 284.438,250.039 277.438,247.769 276.065 C 247.507 275.906,247.292 275.605,247.292 275.395 C 247.292 274.233,243.152 272.107,239.433 271.359 C 235.221 270.511,222.703 270.489,221.864 271.328 M267.284 271.599 C 258.793 274.610,256.164 284.135,261.624 292.104 C 262.905 293.973,268.087 297.656,271.626 299.213 C 278.387 302.187,280.517 307.457,276.131 310.359 C 273.863 311.860,267.304 311.508,263.538 309.682 C 259.210 307.585,259.404 307.486,259.283 311.851 C 259.181 315.543,259.190 315.587,260.175 316.364 C 263.330 318.850,271.363 320.454,275.101 319.344 C 276.160 319.030,277.469 318.773,278.011 318.773 C 278.552 318.773,279.811 318.349,280.809 317.831 C 288.840 313.665,290.427 302.594,283.908 296.209 C 280.938 293.300,280.980 293.330,276.783 291.241 C 269.506 287.621,267.096 284.849,268.231 281.408 C 269.117 278.722,274.847 277.323,278.576 278.881 C 279.288 279.179,280.217 279.423,280.640 279.424 C 281.062 279.424,281.940 279.749,282.590 280.146 C 284.733 281.453,284.838 281.306,284.838 276.982 C 284.838 272.462,285.007 272.689,280.753 271.522 C 276.834 270.446,270.429 270.483,267.284 271.599 M200.077 279.087 C 207.181 281.868,207.844 291.465,201.172 294.942 C 199.295 295.920,193.751 295.923,193.133 294.946 C 192.509 293.958,192.692 280.069,193.342 279.142 C 194.103 278.055,197.374 278.028,200.077 279.087 M237.267 278.929 C 242.867 281.072,242.553 288.891,236.791 290.805 C 234.159 291.679,231.015 291.407,230.415 290.253 C 229.603 288.691,229.950 279.505,230.845 278.851 C 231.800 278.154,235.354 278.197,237.267 278.929 M130.284 284.296 C 127.296 285.920,128.599 290.975,132.006 290.975 C 133.862 290.975,134.862 290.408,135.546 288.967 C 137.146 285.595,133.633 282.476,130.284 284.296 M238.809 298.556 C 238.931 298.755,239.435 298.917,239.927 298.917 C 244.400 298.917,245.716 307.273,241.697 310.154 C 239.628 311.636,232.000 312.144,230.739 310.883 C 229.850 309.995,229.575 301.585,230.360 299.332 L 230.757 298.195 234.671 298.195 C 236.891 298.195,238.682 298.351,238.809 298.556 M292.267 313.833 C 291.642 314.291,291.643 314.335,292.288 314.980 C 293.006 315.698,293.264 318.138,292.733 319.188 C 292.526 319.598,292.608 319.851,292.996 320.000 C 295.030 320.780,297.473 319.020,297.473 316.775 C 297.473 315.292,296.849 315.087,296.685 316.516 C 296.533 317.837,295.525 317.835,295.373 316.514 C 295.298 315.865,295.455 315.444,295.824 315.302 C 296.559 315.020,296.555 313.859,295.819 313.577 C 294.837 313.200,292.946 313.336,292.267 313.833 M294.650 317.263 C 294.317 318.245,293.863 317.059,294.114 315.862 L 294.374 314.621 294.592 315.704 C 294.713 316.300,294.739 317.001,294.650 317.263 " stroke="none" fill="#7c7c7c" fill-rule="evenodd"></path></g></svg>